<svg id="ic-clock" xmlns="http://www.w3.org/2000/svg" width="24" height="24" viewBox="0 0 24 24">
  <g id="Group_63" data-name="Group 63">
    <path id="Path_81" data-name="Path 81" d="M12,0A12,12,0,1,0,24,12,12.013,12.013,0,0,0,12,0Zm0,21.377A9.377,9.377,0,1,1,21.377,12,9.388,9.388,0,0,1,12,21.377Z" fill="#1f89cd"/>
    <path id="Path_82" data-name="Path 82" d="M258.837,145.25v-4.987a1.024,1.024,0,0,0-2.048,0v5.309c0,.016,0,.031,0,.047a.993.993,0,0,0,.3.762l3.815,3.754a1.036,1.036,0,0,0,1.448,0,1,1,0,0,0,0-1.425Z" transform="translate(-245.81 -133.242)" fill="#1f89cd"/>
  </g>
</svg>
