<svg xmlns="http://www.w3.org/2000/svg" width="125" height="50" viewBox="0 0 125 50">
  <g id="ic-credit" transform="translate(-4175 383)">
    <rect id="Rectangle_1965" data-name="Rectangle 1965" width="125" height="50" rx="8" transform="translate(4175 -383)" fill="#fff"/>
    <g id="credit-card" transform="translate(4213 -448)">
      <g id="Group_6682" data-name="Group 6682" transform="translate(0 72)">
        <path id="Path_14994" data-name="Path 14994" d="M44.839,72H3.8A3.8,3.8,0,0,0,0,75.8v27.359a3.8,3.8,0,0,0,3.8,3.8H44.839a3.8,3.8,0,0,0,3.8-3.8V75.8A3.8,3.8,0,0,0,44.839,72Z" transform="translate(0 -72)" fill="#5d647f"/>
      </g>
      <g id="Group_6683" data-name="Group 6683" transform="translate(6.08 78.08)">
        <path id="Path_14995" data-name="Path 14995" d="M74.64,145.12H65.52A1.52,1.52,0,0,1,64,143.6v-6.08A1.52,1.52,0,0,1,65.52,136h9.12a1.52,1.52,0,0,1,1.52,1.52v6.08A1.52,1.52,0,0,1,74.64,145.12Z" transform="translate(-64 -136)" fill="#ffd100"/>
      </g>
      <g id="Group_6688" data-name="Group 6688" transform="translate(6.08 93.279)">
        <g id="Group_6684" data-name="Group 6684">
          <path id="Path_14996" data-name="Path 14996" d="M69.32,299.8h-3.8A1.52,1.52,0,0,1,64,298.28v-.76A1.52,1.52,0,0,1,65.52,296h3.8a1.52,1.52,0,0,1,1.52,1.52v.76A1.52,1.52,0,0,1,69.32,299.8Z" transform="translate(-64 -296)" fill="#b8bac0"/>
        </g>
        <g id="Group_6685" data-name="Group 6685" transform="translate(9.88)">
          <path id="Path_14997" data-name="Path 14997" d="M173.32,299.8h-3.8a1.52,1.52,0,0,1-1.52-1.52v-.76a1.52,1.52,0,0,1,1.52-1.52h3.8a1.52,1.52,0,0,1,1.52,1.52v.76A1.52,1.52,0,0,1,173.32,299.8Z" transform="translate(-168 -296)" fill="#b8bac0"/>
        </g>
        <g id="Group_6686" data-name="Group 6686" transform="translate(19.759)">
          <path id="Path_14998" data-name="Path 14998" d="M277.32,299.8h-3.8a1.52,1.52,0,0,1-1.52-1.52v-.76a1.52,1.52,0,0,1,1.52-1.52h3.8a1.52,1.52,0,0,1,1.52,1.52v.76A1.52,1.52,0,0,1,277.32,299.8Z" transform="translate(-272 -296)" fill="#b8bac0"/>
        </g>
        <g id="Group_6687" data-name="Group 6687" transform="translate(29.639)">
          <path id="Path_14999" data-name="Path 14999" d="M381.32,299.8h-3.8a1.52,1.52,0,0,1-1.52-1.52v-.76a1.52,1.52,0,0,1,1.52-1.52h3.8a1.52,1.52,0,0,1,1.52,1.52v.76A1.52,1.52,0,0,1,381.32,299.8Z" transform="translate(-376 -296)" fill="#b8bac0"/>
        </g>
      </g>
      <g id="Group_6690" data-name="Group 6690" transform="translate(6.08 100.119)">
        <g id="Group_6689" data-name="Group 6689">
          <path id="Path_15000" data-name="Path 15000" d="M79.96,369.52H64.76a.76.76,0,1,1,0-1.52h15.2a.76.76,0,0,1,0,1.52Z" transform="translate(-64 -368)" fill="#8a8895"/>
        </g>
      </g>
      <g id="Group_6692" data-name="Group 6692" transform="translate(24.319 100.119)">
        <g id="Group_6691" data-name="Group 6691">
          <path id="Path_15001" data-name="Path 15001" d="M263.6,369.52h-6.84a.76.76,0,0,1,0-1.52h6.84a.76.76,0,1,1,0,1.52Z" transform="translate(-256 -368)" fill="#8a8895"/>
        </g>
      </g>
      <g id="Group_6693" data-name="Group 6693" transform="translate(9.12 78.08)">
        <path id="Path_15002" data-name="Path 15002" d="M105.12,141.32h-7.6V139.8h7.6v-1.52h-7.6V136H96v9.12h1.52v-2.28h7.6Z" transform="translate(-96 -136)" fill="#ff9500"/>
      </g>
      <g id="Group_6694" data-name="Group 6694" transform="translate(33.439 78.08)">
        <ellipse id="Ellipse_2" data-name="Ellipse 2" cx="5" cy="4.5" rx="5" ry="4.5" transform="translate(-0.439 -0.121)" fill="#ff4f19"/>
      </g>
    </g>
  </g>
</svg>
