<svg xmlns="http://www.w3.org/2000/svg" width="80" height="80" viewBox="0 0 80 80">
  <g id="ic-dinein" transform="translate(-59 -370)">
    <g id="restaurant" transform="translate(63 374)">
      <g id="Group_214" data-name="Group 214" transform="translate(16.311 16.311)">
        <g id="Group_213" data-name="Group 213">
          <path id="Path_177" data-name="Path 177" d="M134.317,114a20.317,20.317,0,1,0,20.317,20.317A20.34,20.34,0,0,0,134.317,114Zm0,37.772a17.455,17.455,0,1,1,17.455-17.455A17.475,17.475,0,0,1,134.317,151.772Z" transform="translate(-114 -114)" fill="#1f89cd" stroke="#fff" stroke-width="0.5"/>
        </g>
      </g>
      <g id="Group_216" data-name="Group 216" transform="translate(59.806)">
        <g id="Group_215" data-name="Group 215">
          <path id="Path_178" data-name="Path 178" d="M430.69.167a1.432,1.432,0,0,0-1.472.078A25.455,25.455,0,0,0,418,21.363V39.927a7.406,7.406,0,0,0,2.183,5.271l2.681,2.681V68.963a4.292,4.292,0,1,0,8.585,0V1.431A1.431,1.431,0,0,0,430.69.167Zm-2.1,68.8a1.431,1.431,0,0,1-2.862,0V47.287a1.431,1.431,0,0,0-.419-1.012l-3.1-3.1a4.563,4.563,0,0,1-1.345-3.248V21.363a22.591,22.591,0,0,1,7.726-17.028Z" transform="translate(-418 0)" fill="#1f89cd" stroke="#fff" stroke-width="0.5"/>
        </g>
      </g>
      <g id="Group_218" data-name="Group 218" transform="translate(23.475 24.411)">
        <g id="Group_217" data-name="Group 217">
          <path id="Path_179" data-name="Path 179" d="M173.945,171.486a1.431,1.431,0,0,0-1.878-.754,13.14,13.14,0,0,0-7.992,12.1,1.431,1.431,0,1,0,2.862,0,10.282,10.282,0,0,1,6.254-9.469A1.431,1.431,0,0,0,173.945,171.486Z" transform="translate(-164.075 -170.617)" fill="#1f89cd" stroke="#fff" stroke-width="0.5"/>
        </g>
      </g>
      <g id="Group_220" data-name="Group 220" transform="translate(35.134 23.475)">
        <g id="Group_219" data-name="Group 219">
          <path id="Path_180" data-name="Path 180" d="M247.055,164.075h-.072a1.431,1.431,0,0,0,.009,2.862h.063a1.431,1.431,0,0,0,0-2.862Z" transform="translate(-245.562 -164.075)" fill="#1f89cd" stroke="#fff" stroke-width="0.5"/>
        </g>
      </g>
      <g id="Group_222" data-name="Group 222" transform="translate(23.455 9.288)">
        <g id="Group_221" data-name="Group 221">
          <path id="Path_181" data-name="Path 181" d="M196.943,73.436a27.358,27.358,0,0,0-32.224-5.56,1.431,1.431,0,1,0,1.3,2.55,24.5,24.5,0,0,1,28.85,4.98,1.431,1.431,0,0,0,2.076-1.97Z" transform="translate(-163.937 -64.914)" fill="#1f89cd" stroke="#fff" stroke-width="0.5"/>
        </g>
      </g>
      <g id="Group_224" data-name="Group 224" transform="translate(21.187 51.253)">
        <g id="Group_223" data-name="Group 223">
          <path id="Path_182" data-name="Path 182" d="M184.745,358.532a1.431,1.431,0,0,0-2.01.235,24.488,24.488,0,0,1-32.448,5.426,1.431,1.431,0,1,0-1.549,2.406,27.349,27.349,0,0,0,36.242-6.057A1.431,1.431,0,0,0,184.745,358.532Z" transform="translate(-148.081 -358.224)" fill="#1f89cd" stroke="#fff" stroke-width="0.5"/>
        </g>
      </g>
      <g id="Group_226" data-name="Group 226" transform="translate(16.883 53.51)">
        <g id="Group_225" data-name="Group 225">
          <path id="Path_183" data-name="Path 183" d="M120.569,374.561l-.021-.024-.023-.028a1.431,1.431,0,1,0-2.189,1.843l.014.016h0l.047.057a1.431,1.431,0,1,0,2.171-1.864Z" transform="translate(-118 -374)" fill="#1f89cd" stroke="#fff" stroke-width="0.5"/>
        </g>
      </g>
      <g id="Group_228" data-name="Group 228" transform="translate(0 0)">
        <g id="Group_227" data-name="Group 227">
          <path id="Path_184" data-name="Path 184" d="M17.741,0a1.431,1.431,0,0,0-1.431,1.431V16.883H13.734c0-.008,0-.016,0-.024V1.431a1.431,1.431,0,1,0-2.862,0V16.859c0,.008,0,.016,0,.024H8.3c0-.008,0-.016,0-.024V1.431a1.431,1.431,0,1,0-2.862,0V16.859c0,.008,0,.016,0,.024H2.862V1.431A1.431,1.431,0,0,0,0,1.431V18.886a8.811,8.811,0,0,0,5.294,8.046v42.03a4.292,4.292,0,0,0,8.585,0V26.932a8.811,8.811,0,0,0,5.294-8.046V1.431A1.431,1.431,0,0,0,17.741,0ZM12.05,24.555a1.431,1.431,0,0,0-1.034,1.375V68.963a1.431,1.431,0,1,1-2.862,0V25.929a1.431,1.431,0,0,0-1.034-1.375,5.932,5.932,0,0,1-4.2-4.81h13.32A5.931,5.931,0,0,1,12.05,24.555Z" fill="#1f89cd" stroke="#fff" stroke-width="0.5"/>
        </g>
      </g>
    </g>
    <rect id="Rectangle_1961" data-name="Rectangle 1961" width="80" height="80" transform="translate(59 370)" fill="none"/>
  </g>
</svg>
