<svg xmlns="http://www.w3.org/2000/svg" width="15" height="16.667" viewBox="0 0 15 16.667">
  <g id="ic-details" transform="translate(-3 -2)">
    <path id="Path_15073" data-name="Path 15073" d="M15.5,2H5.5A2.5,2.5,0,0,0,3,4.5V16.833a1.667,1.667,0,0,0,2.383,1.508c.2-.1.375-.208.558-.317a1.958,1.958,0,0,1,1.225-.392,1.983,1.983,0,0,1,1.233.392,3.575,3.575,0,0,0,2.1.642,3.567,3.567,0,0,0,2.1-.642,1.975,1.975,0,0,1,1.233-.392,1.942,1.942,0,0,1,1.225.392,5.992,5.992,0,0,0,.558.308A1.667,1.667,0,0,0,18,16.833V4.5A2.5,2.5,0,0,0,15.5,2Zm-5,11.667H7.167a.833.833,0,1,1,0-1.667H10.5a.833.833,0,1,1,0,1.667Zm3.333-3.333H7.167a.833.833,0,1,1,0-1.667h6.667a.833.833,0,0,1,0,1.667Zm0-3.333H7.167a.833.833,0,1,1,0-1.667h6.667a.833.833,0,0,1,0,1.667Z" transform="translate(0)" fill="#1f89cd"/>
  </g>
</svg>
