<svg xmlns="http://www.w3.org/2000/svg" width="125" height="50" viewBox="0 0 125 50">
  <g id="ic-jkopay" transform="translate(-4175 315)">
    <rect id="Rectangle_1963" data-name="Rectangle 1963" width="125" height="50" rx="8" transform="translate(4175 -315)" fill="#e60911"/>
    <g id="logo-red-square" transform="translate(4186.83 -309.068)">
      <path id="Path_15004" data-name="Path 15004" d="M24.781.068H7.6A7.428,7.428,0,0,0,.171,7.481V24.638A7.428,7.428,0,0,0,7.6,32.051H24.781a7.428,7.428,0,0,0,7.425-7.413V7.481A7.428,7.428,0,0,0,24.781.068Z" transform="translate(0 0)" fill="#e60911" stroke="#fff" stroke-width="1.5" fill-rule="evenodd"/>
      <path id="Path_15005" data-name="Path 15005" d="M14.362,10.556a.97.97,0,0,1,.088,1.213,10.15,10.15,0,0,1-2.371,3.064,12.689,12.689,0,0,1-3.147,2.1.889.889,0,0,1-1.194-.241l-.427-.485a.876.876,0,0,1-.088-1.213A36.623,36.623,0,0,0,10.2,12.847,26.954,26.954,0,0,0,12.741,9.83a.879.879,0,0,1,1.194.241Zm-.016,5.778-.434-.492a.894.894,0,0,0-1.219-.238A27.966,27.966,0,0,1,10.083,18.7c-.931.817-3.061,2.209-3.061,2.209A.891.891,0,0,0,7.1,22.145l.433.492a.9.9,0,0,0,1.219.238,10.329,10.329,0,0,0,1.4-.775v8.389a.877.877,0,0,0,.842.909h.737a.877.877,0,0,0,.842-.909V20.123a10.5,10.5,0,0,0,1.855-2.553c.221-.5.277-.829-.082-1.237" transform="translate(-3.093 -4.48)" fill="#fff" fill-rule="evenodd"/>
      <path id="Path_15006" data-name="Path 15006" d="M36.867,18.049H28.634c-.018,0-.032.009-.049.01s-.031-.01-.048-.01H26.88a.548.548,0,0,1-.549-.548V16.353a.548.548,0,0,1,.549-.548h1.657a.908.908,0,0,0,.91-.906v-.6a.908.908,0,0,0-.91-.906H26.88a.548.548,0,0,1-.549-.547V10.878a.908.908,0,0,0-.907-.909h-.6a.909.909,0,0,0-.908.909v1.964a.548.548,0,0,1-.548.547H21.63a.909.909,0,0,0-.911.906v.6a.908.908,0,0,0,.911.906h1.732a.548.548,0,0,1,.548.548V17.5a.548.548,0,0,1-.548.548H21.63a.909.909,0,0,0-.911.906v.6a.909.909,0,0,0,.911.906h1.732a.548.548,0,0,1,.548.548v1.035a.548.548,0,0,1-.548.548H21.63a.908.908,0,0,0-.911.906v.6a.909.909,0,0,0,.911.906h1.732a.548.548,0,0,1,.548.547v2.015a.548.548,0,0,1-.435.536c-1.518.32-3.038.621-3.038.621a.956.956,0,0,0-.676,1.171l.159.627c.132.519.44.7,1.153.708a15.98,15.98,0,0,0,3.98-.693,12.822,12.822,0,0,0,4.2-1.909c.541-.368.807-.652.676-1.171l-.159-.626a.957.957,0,0,0-1.152-.709s-.661.329-1.513.712a.549.549,0,0,1-.775-.5v-.785a.548.548,0,0,1,.549-.547h1.657a.908.908,0,0,0,.91-.906v-.6a.908.908,0,0,0-.91-.906H26.88a.548.548,0,0,1-.549-.548V21.013a.548.548,0,0,1,.549-.548h1.657c.017,0,.031-.009.048-.01s.032.01.049.01h2.048a.559.559,0,0,1,.559.558v9.6a.877.877,0,0,0,.841.909h.737a.877.877,0,0,0,.842-.909v-9.6a.558.558,0,0,1,.559-.558h2.646a.909.909,0,0,0,.911-.906v-.6a.909.909,0,0,0-.911-.906" transform="translate(-9.115 -4.614)" fill="#fff" fill-rule="evenodd"/>
      <path id="Path_15007" data-name="Path 15007" d="M41.65,13.035A1.037,1.037,0,1,1,42.688,12a1.037,1.037,0,0,1-1.038,1.036m.13-3.315c-.045,0-.086.006-.13.006s-.086-.009-.13-.006A2.269,2.269,0,0,0,39.5,12.476a19.751,19.751,0,0,0,1.861,4.262.325.325,0,0,0,.583,0A19.751,19.751,0,0,0,43.8,12.476,2.269,2.269,0,0,0,41.78,9.719" transform="translate(-18.309 -4.497)" fill="#fff" fill-rule="evenodd"/>
      <path id="Path_15008" data-name="Path 15008" d="M82.644,26.438l.014-12.289a.8.8,0,0,0-.866-.867l-12.207-.014a.864.864,0,0,0-.647.234.875.875,0,0,0-.22.632L68.7,26.422a.776.776,0,0,0,.867.867l12.207.014a.875.875,0,0,0,.631-.218A.864.864,0,0,0,82.644,26.438Zm.166-15.744a2.259,2.259,0,0,1,2.547,2.549L85.341,27.35a2.249,2.249,0,0,1-2.553,2.543l-14.235-.017a2.238,2.238,0,0,1-2.547-2.549l.016-14.107a2.249,2.249,0,0,1,2.553-2.543Zm-13.7,31.417a2.317,2.317,0,0,1-1.577.463,2.658,2.658,0,0,1-2.08-1.058.78.78,0,0,1-.247-.5.483.483,0,0,1,.131-.34.43.43,0,0,1,.325-.147.569.569,0,0,1,.41.193,7.418,7.418,0,0,0,.642.671,1.318,1.318,0,0,0,.85.332,1.131,1.131,0,0,0,.866-.278,1.334,1.334,0,0,0,.247-.9V37.687a.471.471,0,0,1,.14-.347.5.5,0,0,1,.355-.131.5.5,0,0,1,.348.131.47.47,0,0,1,.139.347v2.9A1.949,1.949,0,0,1,69.115,42.111Zm8.06.325a.545.545,0,0,1-.356.139.479.479,0,0,1-.41-.223l-1.8-2.517-.889.664v1.6a.451.451,0,0,1-.472.478.528.528,0,0,1-.371-.131.457.457,0,0,1-.139-.347V37.687a.446.446,0,0,1,.132-.339.424.424,0,0,1,.332-.139.594.594,0,0,1,.371.124.482.482,0,0,1,.147.355v1.606L76.363,37.3a.492.492,0,0,1,.294-.109.5.5,0,0,1,.495.5.447.447,0,0,1-.193.371l-1.57,1.189,1.841,2.578a.509.509,0,0,1,.1.271A.437.437,0,0,1,77.175,42.436Zm5.551-3.814a1.378,1.378,0,0,0-1.175-.556,1.393,1.393,0,0,0-1.183.556,2.077,2.077,0,0,0-.379,1.289,1.927,1.927,0,0,0,.387,1.259,1.411,1.411,0,0,0,1.175.532,1.376,1.376,0,0,0,1.168-.532,2.028,2.028,0,0,0,.364-1.259A2.212,2.212,0,0,0,82.726,38.622Zm.711,3.2a2.35,2.35,0,0,1-1.879.756,2.4,2.4,0,0,1-1.887-.764,2.784,2.784,0,0,1-.657-1.945,2.693,2.693,0,0,1,.665-1.907,2.634,2.634,0,0,1,3.7.008,2.749,2.749,0,0,1,.665,1.9A2.912,2.912,0,0,1,83.438,41.818Zm6.316-3.39a.652.652,0,0,0-.5-.223H87.465q-.278,0-.278.347v1.205h2.064a.635.635,0,0,0,.5-.232.844.844,0,0,0,.193-.548A.864.864,0,0,0,89.754,38.428Zm.7,1.722a1.532,1.532,0,0,1-1.152.486H87.187v1.5c0,.294-.171.44-.5.44s-.488-.154-.488-.447V38.1a.685.685,0,0,1,.263-.571.961.961,0,0,1,.61-.193h2.289a1.478,1.478,0,0,1,1.114.47,1.7,1.7,0,0,1,.433,1.158A1.65,1.65,0,0,1,90.45,40.15Zm4.4-1.606-.967,2.022H95.82Zm2.621,3.883a.647.647,0,0,1-.418.154.452.452,0,0,1-.433-.3l-.394-.842H93.477l-.394.842a.47.47,0,0,1-.449.3.593.593,0,0,1-.4-.154.467.467,0,0,1-.178-.378.514.514,0,0,1,.062-.247l2.2-4.307a.538.538,0,0,1,.534-.294.555.555,0,0,1,.541.294L97.576,41.8a.527.527,0,0,1,.069.247A.491.491,0,0,1,97.467,42.428Zm6.145-4.478-1.98,2.578v1.56a.464.464,0,0,1-.479.486.5.5,0,0,1-.356-.131.476.476,0,0,1-.138-.355v-1.56l-1.98-2.578a.427.427,0,0,1-.108-.286.4.4,0,0,1,.171-.332.608.608,0,0,1,.378-.131.442.442,0,0,1,.356.2l1.67,2.293,1.662-2.293a.43.43,0,0,1,.355-.2.628.628,0,0,1,.379.131.428.428,0,0,1,.17.332A.513.513,0,0,1,103.612,37.95ZM98.454,23.979c.1-.047.169-.071.265-.12a19.01,19.01,0,0,0,4.1-2.736,4.448,4.448,0,0,0,1.544-2.042c0-.12-.145-.192-.385-.193L92.7,18.875c.025.048.048.1.072.1.241.265.457.506.625.7a19.3,19.3,0,0,0,4.716,4.117A1.54,1.54,0,0,0,98.454,23.979ZM131.488,12.62c.217.144.336.5.335,1.058a1.512,1.512,0,0,1-.193.89,1.19,1.19,0,0,1-1.036.407l-1.879,0-.015,12.7a1.8,1.8,0,0,1-.748,1.442,4.412,4.412,0,0,1-2.1.623c-.963,0-18.916,1.1-27.478-2.966-1.832.768-3.952,1.559-6.409,2.349a15.621,15.621,0,0,1-3.156.67,1.347,1.347,0,0,1-.963-.386,1.086,1.086,0,0,1-.36-.746,1.183,1.183,0,0,1,.483-1.13c3.059-.814,5.613-1.6,7.685-2.372A27.42,27.42,0,0,1,91.4,21.278a2.893,2.893,0,0,1-.962-1.54,1.16,1.16,0,0,1,.314-.865H89.67c-.458,0-.747-.1-.868-.338a1.172,1.172,0,0,1-.263-.866,1.161,1.161,0,0,1,.314-.865,1.194,1.194,0,0,1,.82-.263l7.345.008,0-3.2-8.092-.009a1.369,1.369,0,0,1-.938-.29,1.212,1.212,0,0,1-.288-.939,1.366,1.366,0,0,1,.29-.937,1.37,1.37,0,0,1,.939-.287l8.093.009,0-2.068a1.346,1.346,0,0,1,.387-.937,1.488,1.488,0,0,1,1.036-.264,1.518,1.518,0,0,1,.987.266,1.219,1.219,0,0,1,.409.938l0,2.068,8.478.01a1.29,1.29,0,0,1,.938.29,1.143,1.143,0,0,1,.288.938,1.346,1.346,0,0,1-.241.841,1.207,1.207,0,0,1-.988.384l-8.478-.01,0,3.2,5.178.006a4.742,4.742,0,0,1,1.758.315,1.7,1.7,0,0,1,.792,1.564,6.063,6.063,0,0,1-1.255,2.74,17.681,17.681,0,0,1-4.484,3.866c-.193.12-.386.216-.554.311,2.89,1.119,7.221,1.622,11.438,1.822l.009-7.748a.513.513,0,0,0-.1.144,1.31,1.31,0,0,1-1.133.552,1.619,1.619,0,0,1-1.132-.385,1.116,1.116,0,0,1-.384-.915,1.508,1.508,0,0,1,.315-.793,37.428,37.428,0,0,0,4.128-9.253,1.127,1.127,0,0,1,.844-.768,2.519,2.519,0,0,1,1.108.241,1.031,1.031,0,0,1,.481.987c-.049.36-.1.7-.17,1.01a26.823,26.823,0,0,1-1.329,3.821l-.015,13.2c5.345.113,9.944-.176,10.356-.176a.319.319,0,0,0,.362-.36l.013-11.758-7.707-.009a1.28,1.28,0,0,1-.89-.29,1.218,1.218,0,0,1-.336-1.01,1.326,1.326,0,0,1,.338-1.082,1.36,1.36,0,0,1,.891-.239l7.707.009,0-3.2c0-.7.459-1.082,1.326-1.128.867,0,1.3.387,1.323,1.132l0,3.2,1.879,0A1.355,1.355,0,0,1,131.488,12.62Zm-10.273,11.12a.846.846,0,0,1-.337-.409c-.552-1.131-1.465-2.839-2.715-5.1a1.135,1.135,0,0,1-.192-.626,1.32,1.32,0,0,1,.1-.481,1.383,1.383,0,0,1,.579-.529,1.851,1.851,0,0,1,.65-.119,2.241,2.241,0,0,1,.939.362,15.365,15.365,0,0,1,2.068,3.368,6.725,6.725,0,0,1,.743,2.646.853.853,0,0,1-.265.7,1.277,1.277,0,0,1-.964.335A.963.963,0,0,1,121.215,23.741Z" transform="translate(-30.308 -3.523)" fill="#fff" fill-rule="evenodd"/>
    </g>
  </g>
</svg>
