<svg xmlns="http://www.w3.org/2000/svg" width="19" height="19" viewBox="0 0 19 19">
  <g id="ic-locate-light" transform="translate(-19 -265)">
    <g id="Layer_2" data-name="Layer 2" transform="translate(17.999 264.001)">
      <path id="Path_79" data-name="Path 79" d="M16.083,2.769A8.229,8.229,0,0,0,9.395,1.152a7.9,7.9,0,0,0-6.19,5.872,7.656,7.656,0,0,0,2.926,7.909,13.328,13.328,0,0,1,3.485,3.642l.622,1.005a.9.9,0,0,0,1.524,0l.6-.966a11.1,11.1,0,0,1,3.18-3.455,7.634,7.634,0,0,0,.544-12.395ZM11,12.227A3.506,3.506,0,0,1,7.445,8.773a3.557,3.557,0,0,1,7.111,0A3.506,3.506,0,0,1,11,12.227Z" transform="translate(0 0)" fill="#fff"/>
    </g>
    <rect id="Rectangle_154" data-name="Rectangle 154" width="19" height="19" transform="translate(19 265)" fill="none"/>
  </g>
</svg>
