<svg xmlns="http://www.w3.org/2000/svg" width="125" height="52" viewBox="0 0 125 52">
  <g id="ic-linepay" transform="translate(-4004 384)">
    <rect id="Rectangle_1964" data-name="Rectangle 1964" width="125" height="50" rx="8" transform="translate(4004 -383)" fill="#fff"/>
    <g id="Group_6768" data-name="Group 6768" transform="translate(3001 -14581.951)">
      <g id="line" transform="translate(1019 14210.122)" style="isolation: isolate">
        <g id="Path_14986" data-name="Path 14986" transform="translate(1.182 -6.001)" stroke-linecap="square">
          <path d="M 13.98915672302246 28.58929824829102 L 11.71458625793457 28.58929824829102 C 10.67652702331543 28.58929824829102 9.831996917724609 27.74484825134277 9.831996917724609 26.70687675476074 L 9.831996917724609 12.54858779907227 C 9.831996917724609 11.51052761077881 10.67652702331543 10.66599750518799 11.71458625793457 10.66599750518799 L 13.98915672302246 10.66599750518799 C 15.02712631225586 10.66599750518799 15.8715763092041 11.51052761077881 15.8715763092041 12.54858779907227 L 15.8715763092041 26.70687675476074 C 15.8715763092041 27.74484825134277 15.02712631225586 28.58929824829102 13.98915672302246 28.58929824829102 Z" stroke="none"/>
          <path d="M 11.71458625793457 11.91599655151367 C 11.36530685424805 11.91599655151367 11.08199691772461 12.19912719726562 11.08199691772461 12.54858779907227 L 11.08199691772461 26.70687866210938 C 11.08199691772461 27.05616760253906 11.36530685424805 27.33929824829102 11.71458625793457 27.33929824829102 L 13.98915672302246 27.33929824829102 C 14.3384370803833 27.33929824829102 14.6215763092041 27.05616760253906 14.6215763092041 26.70687866210938 L 14.6215763092041 12.54858779907227 C 14.6215763092041 12.19912719726562 14.3384370803833 11.91599655151367 13.98915672302246 11.91599655151367 L 11.71458625793457 11.91599655151367 M 11.71458625793457 9.415996551513672 L 13.98915672302246 9.415996551513672 C 15.71637630462646 9.415996551513672 17.1215763092041 10.82126808166504 17.1215763092041 12.54858779907227 L 17.1215763092041 26.70687866210938 C 17.1215763092041 28.43409729003906 15.71637630462646 29.83929824829102 13.98915672302246 29.83929824829102 L 11.71458625793457 29.83929824829102 C 9.987266540527344 29.83929824829102 8.581996917724609 28.43409729003906 8.581996917724609 26.70687866210938 L 8.581996917724609 12.54858779907227 C 8.581996917724609 10.82126808166504 9.987266540527344 9.415996551513672 11.71458625793457 9.415996551513672 Z" stroke="none" fill="#fff"/>
        </g>
        <g id="Path_14987" data-name="Path 14987" transform="translate(-4 -6.001)" stroke-linecap="square">
          <path d="M 13.67120456695557 28.59171867370605 L 4.632504463195801 28.59171867370605 C 4.12969446182251 28.59171867370605 3.656954526901245 28.39588928222656 3.301374435424805 28.04030799865723 C 2.945814609527588 27.68475914001465 2.750004529953003 27.21206855773926 2.750004529953003 26.70930862426758 L 2.750004529953003 12.54858875274658 C 2.750004529953003 12.0457181930542 2.945814609527588 11.57295894622803 3.301374435424805 11.21740818023682 C 3.656954526901245 10.86182880401611 4.12969446182251 10.6659984588623 4.632504463195801 10.6659984588623 L 6.907094478607178 10.6659984588623 C 7.409904479980469 10.6659984588623 7.88263463973999 10.86182880401611 8.238214492797852 11.21740818023682 C 8.593774795532227 11.57296848297119 8.789594650268555 12.0457181930542 8.789594650268555 12.54858875274658 L 8.789594650268555 22.55456924438477 L 13.67120456695557 22.55456924438477 C 14.17131423950195 22.55456924438477 14.64224433898926 22.74856948852539 14.9972448348999 23.10084915161133 C 15.352294921875 23.45319938659668 15.54989433288574 23.92269897460938 15.5536642074585 24.42287826538086 L 15.55370426177979 24.42758941650391 L 15.55370426177979 24.43230819702148 L 15.55370426177979 26.70930862426758 C 15.55370426177979 26.95778846740723 15.50546455383301 27.20018768310547 15.41032409667969 27.42977905273438 C 15.31576442718506 27.6585578918457 15.17832469940186 27.86435890197754 15.00226497650146 28.0403881072998 C 14.82578468322754 28.21674919128418 14.61996459960938 28.35413932800293 14.39030456542969 28.4489688873291 C 14.16294479370117 28.54336929321289 13.92023468017578 28.59171867370605 13.67120456695557 28.59171867370605 Z" stroke="none"/>
          <path d="M 13.67120456695557 27.34171867370605 C 13.75426483154297 27.34171867370605 13.83651447296143 27.325439453125 13.91324424743652 27.2935791015625 C 13.98999404907227 27.26188850402832 14.05971431732178 27.21512794494629 14.1184549331665 27.15642929077148 C 14.17717456817627 27.09771919250488 14.22377490997314 27.02810859680176 14.25555419921875 26.95121765136719 C 14.28734493255615 26.87450790405273 14.30370426177979 26.7922477722168 14.30370426177979 26.70930862426758 L 14.30370426177979 24.43230819702148 C 14.30244445800781 24.2653694152832 14.23525428771973 24.10570907592773 14.116774559021 23.98812866210938 C 13.99828433990479 23.87054824829102 13.83812427520752 23.80456924438477 13.67120456695557 23.80456924438477 L 7.539594650268555 23.80456924438477 L 7.539594650268555 12.54858875274658 C 7.539594650268555 12.38078880310059 7.472954750061035 12.21990871429443 7.354334354400635 12.10128879547119 C 7.235714435577393 11.98266887664795 7.074844360351562 11.9159984588623 6.907094478607178 11.9159984588623 L 4.632504463195801 11.9159984588623 C 4.464754581451416 11.9159984588623 4.303874492645264 11.98266887664795 4.185254573822021 12.10128879547119 C 4.066634654998779 12.21990871429443 4.000004291534424 12.38078880310059 4.000004291534424 12.54858875274658 L 4.000004291534424 26.70930862426758 C 4.000004291534424 26.87692832946777 4.066634654998779 27.03780937194824 4.185254573822021 27.15642929077148 C 4.303874492645264 27.27504920959473 4.464754581451416 27.34171867370605 4.632504463195801 27.34171867370605 L 13.67120456695557 27.34171867370605 M 13.67120456695557 29.84171867370605 L 4.632504463195801 29.84171867370605 C 3.795804500579834 29.84171867370605 3.009164571762085 29.515869140625 2.417484521865845 28.92419815063477 C 1.825844526290894 28.33254814147949 1.500004529953003 27.54594802856445 1.500004529953003 26.70930862426758 L 1.500004529953003 12.54858875274658 C 1.500004529953003 11.71182823181152 1.825844526290894 10.92516899108887 2.417484521865845 10.33351898193359 C 3.009164571762085 9.741848945617676 3.795804500579834 9.415998458862305 4.632504463195801 9.415998458862305 L 6.907094478607178 9.415998458862305 C 7.743794441223145 9.415998458862305 8.530424118041992 9.741848945617676 9.122104644775391 10.33351898193359 C 9.713754653930664 10.92517852783203 10.03959465026855 11.711838722229 10.03959465026855 12.54858875274658 L 10.03959465026855 21.30456924438477 L 13.67120456695557 21.30456924438477 C 14.50338459014893 21.30456924438477 15.2870044708252 21.62738800048828 15.87771415710449 22.21355819702148 C 16.46854400634766 22.79990768432617 16.79735374450684 23.58114814758301 16.80363464355469 24.41343879699707 L 16.8037052154541 24.43230819702148 L 16.8037052154541 26.70930862426758 C 16.8037052154541 27.12285804748535 16.72342491149902 27.52625846862793 16.56508445739746 27.90832901000977 C 16.40781402587891 28.28883934020996 16.17906379699707 28.63140869140625 15.88607406616211 28.92434883117676 C 15.5924243927002 29.21778869628906 15.24983406066895 29.4464282989502 14.86736488342285 29.60434913635254 C 14.48957443237305 29.7612190246582 14.08559417724609 29.84171867370605 13.67120456695557 29.84171867370605 Z" stroke="none" fill="#fff"/>
        </g>
        <g id="Path_14988" data-name="Path 14988" transform="translate(10.291 -6.001)" stroke-linecap="square">
          <path d="M 33.20251846313477 28.59171867370605 L 24.16378784179688 28.59171867370605 C 23.66091728210449 28.59171867370605 23.18814849853516 28.39587783813477 22.83257865905762 28.04027938842773 C 22.47757911682129 27.6853084564209 22.28173828125 27.21307945251465 22.28119850158691 26.71064949035645 L 22.28119850158691 12.54858875274658 C 22.28119850158691 12.0457181930542 22.47703742980957 11.57294845581055 22.8326473236084 11.21736812591553 C 23.18814849853516 10.86183834075928 23.66091728210449 10.6659984588623 24.16378784179688 10.6659984588623 L 33.21203994750977 10.6659984588623 C 33.71487808227539 10.6659984588623 34.18762969970703 10.86182880401611 34.54320907592773 11.21740818023682 C 34.89877700805664 11.57293891906738 35.09461975097656 12.04570865631104 35.09461975097656 12.54858875274658 L 35.09461975097656 14.82558822631836 L 35.09461975097656 14.83340835571289 L 35.09451675415039 14.84122848510742 C 35.09139633178711 15.09036827087402 35.04000854492188 15.33257865905762 34.94176864624023 15.56112861633301 C 34.84457778930664 15.78841876983643 34.70421981811523 15.99299812316895 34.52551651000977 16.16701889038086 C 34.34724807739258 16.34065818786621 34.13951873779297 16.4754581451416 33.90819931030273 16.56755828857422 C 33.81589126586914 16.6041088104248 33.72200775146484 16.63316917419434 33.62685775756836 16.65471458435059 C 33.97135162353516 16.73175621032715 34.28757476806641 16.9047679901123 34.54317855834961 17.16034889221191 C 34.89878845214844 17.51596832275391 35.09461975097656 17.98871803283691 35.09461975097656 18.49156951904297 L 35.09461975097656 20.76614761352539 C 35.09461975097656 21.01681900024414 35.04547882080078 21.2613582611084 34.94856643676758 21.49297904968262 C 34.85177993774414 21.7243480682373 34.71205902099609 21.9310188293457 34.53331756591797 22.107177734375 C 34.35387802124023 22.28346824645996 34.14628982543945 22.4194393157959 33.91486740112305 22.51271820068359 C 33.82385635375977 22.54912185668945 33.73144912719727 22.57821846008301 33.63784790039062 22.60001564025879 C 33.97433090209961 22.67930030822754 34.28310775756836 22.85054779052734 34.53368759155273 23.10112762451172 C 34.88915634155273 23.45658874511719 35.08491897583008 23.92934799194336 35.08491897583008 24.43230819702148 L 35.08491897583008 26.70930862426758 C 35.08491897583008 27.212158203125 34.88915634155273 27.68484878540039 34.53368759155273 28.04030799865723 C 34.17810821533203 28.39588928222656 33.70535659790039 28.59171867370605 33.20251846313477 28.59171867370605 Z" stroke="none"/>
          <path d="M 24.16378784179688 11.9159984588623 C 23.99598693847656 11.9159984588623 23.83511734008789 11.98266792297363 23.71648788452148 12.10128784179688 C 23.59786987304688 12.21990776062012 23.53119659423828 12.38077926635742 23.53119659423828 12.54858779907227 L 23.53119659423828 26.70930862426758 C 23.53136825561523 26.87692832946777 23.59786987304688 27.03779983520508 23.71648788452148 27.15642929077148 C 23.83511734008789 27.27504730224609 23.99598693847656 27.34171867370605 24.16378784179688 27.34171867370605 L 33.20251846313477 27.34171867370605 C 33.37030792236328 27.34171867370605 33.53118896484375 27.27504730224609 33.64979553222656 27.15642929077148 C 33.76842880249023 27.03779983520508 33.83491897583008 26.87692832946777 33.83491897583008 26.70930862426758 L 33.83491897583008 24.43230819702148 C 33.83491897583008 24.26449966430664 33.76842880249023 24.10362815856934 33.64979553222656 23.98500823974609 C 33.53118896484375 23.86638832092285 33.37030792236328 23.79971885681152 33.20251846313477 23.79971885681152 L 27.07094764709473 23.79971885681152 L 27.07094764709473 21.39872932434082 L 33.20251846313477 21.39872932434082 C 33.28632354736328 21.39990615844727 33.3696174621582 21.3845272064209 33.44754791259766 21.35335922241211 C 33.52529907226562 21.32201766967773 33.59611892700195 21.27560806274414 33.65586853027344 21.21690940856934 C 33.71560668945312 21.15802764892578 33.76305770874023 21.08788871765137 33.79544067382812 21.01048851013184 C 33.82782745361328 20.93307876586914 33.84461975097656 20.85012817382812 33.84461975097656 20.76614761352539 L 33.84461975097656 18.49156951904297 C 33.84461975097656 18.32376861572266 33.77795791625977 18.16289901733398 33.65932846069336 18.04426765441895 C 33.54071044921875 17.9256591796875 33.37983703613281 17.85915946960449 33.2120361328125 17.85915946960449 L 27.07094764709473 17.85915946960449 L 27.07094764709473 15.45089912414551 L 33.20251846313477 15.45089912414551 C 33.28580474853516 15.45207786560059 33.368408203125 15.43687057495117 33.44581604003906 15.40621948242188 C 33.52322769165039 15.37539863586426 33.59369659423828 15.32967948913574 33.65343856811523 15.27148818969727 C 33.71300888061523 15.21347808837891 33.76063537597656 15.14403915405273 33.79336547851562 15.0674991607666 C 33.82626724243164 14.99095916748047 33.84357833862305 14.9087085723877 33.84461975097656 14.82558822631836 L 33.84461975097656 12.54858779907227 C 33.84461975097656 12.38077926635742 33.77795791625977 12.21990776062012 33.65932846069336 12.10128784179688 C 33.54071044921875 11.98266792297363 33.37983703613281 11.9159984588623 33.2120361328125 11.9159984588623 L 24.16378784179688 11.9159984588623 M 24.16378784179688 9.415998458862305 L 33.2120361328125 9.415998458862305 C 34.04876708984375 9.415998458862305 34.83541870117188 9.741847991943359 35.42709732055664 10.33351898193359 C 36.01873779296875 10.92511940002441 36.34461975097656 11.7118091583252 36.34461975097656 12.54858779907227 L 36.34441757202148 14.85686874389648 C 36.33924102783203 15.27130889892578 36.25370025634766 15.67433929443359 36.09017944335938 16.05475807189941 C 35.99929046630859 16.26730918884277 35.88554382324219 16.46808815002441 35.75039672851562 16.65469360351562 C 36.13632583618164 17.18563079833984 36.34461975097656 17.82260322570801 36.34461975097656 18.49156951904297 L 36.34461975097656 20.76614761352539 C 36.34461975097656 21.18335914611816 36.26288604736328 21.59022903442383 36.10168838500977 21.97547912597656 C 36.00771331787109 22.20010757446289 35.88944244384766 22.41072082519531 35.74813079833984 22.60544967651367 C 36.12927627563477 23.13422012329102 36.33491897583008 23.76740264892578 36.33491897583008 24.43230819702148 L 36.33491897583008 26.70930862426758 C 36.33491897583008 27.54603958129883 36.00912857055664 28.33262825012207 35.41756820678711 28.92419815063477 C 34.82596588134766 29.51583862304688 34.03928756713867 29.84171867370605 33.20251846313477 29.84171867370605 L 24.16378784179688 29.84171867370605 C 23.32710647583008 29.84171867370605 22.54046630859375 29.51589965820312 21.94879913330078 28.92426872253418 C 21.35786819458008 28.33329772949219 21.03204727172852 27.54762840270996 21.03119659423828 26.71184921264648 L 21.03119659423828 12.54858779907227 C 21.03119659423828 11.71185874938965 21.35704803466797 10.92519950866699 21.9487190246582 10.33351898193359 C 22.54046630859375 9.741819381713867 23.32710647583008 9.415998458862305 24.16378784179688 9.415998458862305 Z" stroke="none" fill="#fff"/>
        </g>
        <g id="Path_14989" data-name="Path 14989" transform="translate(3.688 -6.003)" stroke-linecap="square">
          <path d="M 27.08610343933105 28.59212112426758 L 24.76615333557129 28.59212112426758 L 24.71746253967285 28.59212112426758 L 24.66891288757324 28.58833122253418 C 24.41909217834473 28.5688419342041 24.17923355102539 28.50119209289551 23.95602226257324 28.38727188110352 C 23.73191261291504 28.27238082885742 23.53730392456055 28.1184024810791 23.37555313110352 27.92856216430664 L 23.37069320678711 27.92286109924316 L 23.36590385437012 27.91710090637207 L 23.35704231262207 27.90668106079102 C 23.32829284667969 27.87299537658691 23.28032112121582 27.81676483154297 23.22905158996582 27.74295234680176 L 19.2997932434082 22.12263488769531 L 19.2997932434082 26.70970153808594 C 19.2997932434082 27.21255111694336 19.10396385192871 27.68530082702637 18.74838256835938 28.0408821105957 C 18.39291381835938 28.3963508605957 17.92022323608398 28.59212112426758 17.41738319396973 28.59212112426758 L 15.14038276672363 28.59212112426758 C 14.63743305206299 28.59212112426758 14.16468334197998 28.3963508605957 13.80921268463135 28.0408821105957 C 13.45363330841064 27.68530082702637 13.25780296325684 27.21255111694336 13.25780296325684 26.70970153808594 L 13.25780296325684 12.54899215698242 C 13.25780296325684 12.04614162445068 13.45363330841064 11.57339191436768 13.80921268463135 11.21781158447266 C 14.16479301452637 10.86223125457764 14.63754272460938 10.66640186309814 15.14038276672363 10.66640186309814 L 17.38198089599609 10.66640186309814 C 17.41006469726562 10.66527843475342 17.4382495880127 10.66471195220947 17.46622276306152 10.66471195220947 C 17.47846603393555 10.66471195220947 17.49075126647949 10.66482067108154 17.5030517578125 10.66503620147705 C 17.53275299072266 10.66373634338379 17.56247138977051 10.66308212280273 17.5920238494873 10.66308212280273 C 17.87769317626953 10.66308212280273 18.15494346618652 10.72170162200928 18.41606330871582 10.83730125427246 C 18.73426246643066 10.9786319732666 19.0116138458252 11.19962215423584 19.21952247619629 11.47697162628174 L 19.23155403137207 11.49302196502686 L 19.2430534362793 11.50944137573242 L 22.93621253967285 16.78042411804199 L 22.93621253967285 12.54899215698242 C 22.93621253967285 12.04768180847168 23.13106346130371 11.57591152191162 23.48485374450684 11.22058200836182 C 23.83858299255371 10.86530208587646 24.30964279174805 10.66848182678223 24.81122398376465 10.66641139984131 L 24.81379318237305 10.66640186309814 L 24.81637382507324 10.66640186309814 L 27.09319305419922 10.66640186309814 L 27.10032272338867 10.66640186309814 L 27.10744285583496 10.66648197174072 C 27.60627365112305 10.6721715927124 28.07414245605469 10.87074184417725 28.42487335205078 11.22560214996338 C 28.77510261535645 11.57894134521484 28.96868324279785 12.04938125610352 28.96868324279785 12.54899215698242 L 28.96868324279785 26.70970153808594 C 28.96868324279785 27.21255111694336 28.77285385131836 27.68530082702637 28.41727256774902 28.0408821105957 C 28.06180381774902 28.3963508605957 27.58905220031738 28.59212112426758 27.08610343933105 28.59212112426758 Z" stroke="none"/>
          <path d="M 17.59205055236816 11.91308212280273 C 17.56801795959473 11.91308212280273 17.54394340515137 11.9141845703125 17.5199031829834 11.91640090942383 C 17.48423194885254 11.91415596008301 17.44820404052734 11.91415596008301 17.41253280639648 11.91640090942383 L 15.14038276672363 11.91640090942383 C 14.97258377075195 11.91640090942383 14.81171226501465 11.98307228088379 14.69309234619141 12.10169219970703 C 14.57447242736816 12.22031211853027 14.50780296325684 12.38119125366211 14.50780296325684 12.54899215698242 L 14.50780296325684 26.70970153808594 C 14.50780296325684 26.87750244140625 14.57447242736816 27.03838157653809 14.69309234619141 27.15700149536133 C 14.81171226501465 27.27562141418457 14.97258377075195 27.34212112426758 15.14038276672363 27.34212112426758 L 17.41738319396973 27.34212112426758 C 17.58501243591309 27.34212112426758 17.74588394165039 27.27562141418457 17.86450386047363 27.15700149536133 C 17.98312377929688 27.03838157653809 18.0497932434082 26.87750244140625 18.0497932434082 26.70970153808594 L 18.0497932434082 18.1530818939209 L 24.25548362731934 27.0295524597168 C 24.27695274353027 27.06054306030273 24.30310249328613 27.0891227722168 24.32700347900391 27.11786270141602 C 24.38189315795898 27.18228149414062 24.44891357421875 27.23527145385742 24.52424240112305 27.27389144897461 C 24.59956359863281 27.31233215332031 24.68182373046875 27.33553314208984 24.76615333557129 27.34212112426758 L 27.08610343933105 27.34212112426758 C 27.25390243530273 27.34212112426758 27.41477203369141 27.27562141418457 27.53339385986328 27.15700149536133 C 27.65201187133789 27.03838157653809 27.71868324279785 26.87750244140625 27.71868324279785 26.70970153808594 L 27.71868324279785 12.54899215698242 C 27.71868324279785 12.38240242004395 27.65305328369141 12.22256088256836 27.53582382202148 12.10429191589355 C 27.41875267028809 11.98584175109863 27.25979232788086 11.91830253601074 27.09319305419922 11.91640090942383 L 24.81637382507324 11.91640090942383 C 24.64892387390137 11.91709136962891 24.48874282836914 11.98394203186035 24.37064361572266 12.10256195068359 C 24.25253295898438 12.22118186950684 24.18621253967285 12.3817024230957 24.18621253967285 12.54899215698242 L 24.18621253967285 20.74282264709473 L 18.21933364868164 12.22672080993652 C 18.13898277282715 12.11953163146973 18.03248405456543 12.03467178344727 17.91005325317383 11.98030090332031 C 17.80969619750977 11.93587303161621 17.7013111114502 11.91308212280273 17.59205055236816 11.91308212280273 M 17.5920524597168 9.413082122802734 C 18.05309295654297 9.413082122802734 18.50057220458984 9.507701873779297 18.92208290100098 9.694301605224609 C 19.43621253967285 9.92262077331543 19.88401222229004 10.2794017791748 20.21971321105957 10.72723197937012 L 20.26678276062012 10.79216194152832 L 21.68621253967285 12.81801223754883 L 21.68621253967285 12.54899215698242 C 21.68621253967285 11.71481132507324 22.01040267944336 10.92981147766113 22.59907341003418 10.3386116027832 C 23.18769264221191 9.747392654418945 23.97151374816895 9.41986083984375 24.80607223510742 9.416421890258789 L 24.81637382507324 9.416400909423828 L 27.1217041015625 9.416561126708984 C 27.95177268981934 9.426031112670898 28.73032379150391 9.756431579589844 29.31391334533691 10.3469123840332 C 29.89646339416504 10.93462181091309 30.21868324279785 11.71758079528809 30.21868324279785 12.54899215698242 L 30.21868324279785 26.70970153808594 C 30.21868324279785 27.54643249511719 29.8928337097168 28.33309173583984 29.30116271972656 28.92477035522461 C 28.70959281921387 29.51633071899414 27.92294311523438 29.84212112426758 27.08610343933105 29.84212112426758 L 24.66862297058105 29.84212112426758 L 24.57138252258301 29.83452224731445 C 24.15658378601074 29.8021125793457 23.75836372375488 29.68978118896484 23.38780403137207 29.50066184997559 C 23.01534271240234 29.30971145629883 22.69248390197754 29.05425262451172 22.42409324645996 28.73926162719727 L 22.40617370605469 28.71807098388672 C 22.36869239807129 28.67414474487305 22.29164123535156 28.5838508605957 22.2065544128418 28.46199035644531 L 22.20655250549316 28.46199035644531 L 20.5497932434082 26.09220123291016 L 20.5497932434082 26.70970153808594 C 20.5497932434082 27.54643249511719 20.22394371032715 28.33309173583984 19.63227272033691 28.92477035522461 C 19.04070281982422 29.51633071899414 18.25411224365234 29.84212112426758 17.41738319396973 29.84212112426758 L 15.14038276672363 29.84212112426758 C 14.30354309082031 29.84212112426758 13.51689338684082 29.51633071899414 12.92532348632812 28.92477035522461 C 12.33365249633789 28.33309173583984 12.00780296325684 27.54643249511719 12.00780296325684 26.70970153808594 L 12.00780296325684 12.54899215698242 C 12.00780296325684 11.71226119995117 12.33365249633789 10.92560195922852 12.92532348632812 10.33392143249512 C 13.51700401306152 9.742252349853516 14.30365371704102 9.416400909423828 15.14038276672363 9.416400909423828 L 17.35991287231445 9.416400909423828 C 17.40230751037598 9.415056228637695 17.44460296630859 9.414512634277344 17.48689842224121 9.414775848388672 C 17.52201461791992 9.41364860534668 17.55710029602051 9.413082122802734 17.5920524597168 9.413082122802734 Z" stroke="none" fill="#fff"/>
        </g>
        <g id="Path_14990" data-name="Path 14990" transform="translate(17.153 -8.5)" fill="#08bf5b" stroke-linecap="square">
          <path d="M 74.77656555175781 37.00211715698242 L 34.49019241333008 37.00211715698242 C 32.92972183227539 37.00211715698242 31.66019248962402 35.73258972167969 31.66019248962402 34.17212677001953 L 31.66019248962402 10.08004856109619 C 31.66019248962402 8.519558906555176 32.92972183227539 7.249998569488525 34.49019241333008 7.249998569488525 L 74.77656555175781 7.249998569488525 C 76.33702087402344 7.249998569488525 77.60655212402344 8.519558906555176 77.60655212402344 10.08004856109619 L 77.60655212402344 34.17212677001953 C 77.60655212402344 35.73258972167969 76.33702087402344 37.00211715698242 74.77656555175781 37.00211715698242 Z" stroke="none"/>
          <path d="M 34.49019622802734 8.5 C 33.61759185791016 8.5 32.91019439697266 9.207408905029297 32.91019439697266 10.08003997802734 L 32.91019439697266 34.172119140625 C 32.91019439697266 35.04471969604492 33.61759185791016 35.75211715698242 34.49019622802734 35.75211715698242 L 74.77655029296875 35.75211715698242 C 75.64915466308594 35.75211715698242 76.35655212402344 35.04471969604492 76.35655212402344 34.172119140625 L 76.35655212402344 10.08003997802734 C 76.35655212402344 9.207408905029297 75.64915466308594 8.5 74.77655029296875 8.5 L 34.49019622802734 8.5 M 34.49019622802734 6 L 74.77655029296875 6 C 77.02627563476562 6 78.85655212402344 7.830299377441406 78.85655212402344 10.08003997802734 L 78.85655212402344 34.172119140625 C 78.85655212402344 36.42183685302734 77.02627563476562 38.25211715698242 74.77655029296875 38.25211715698242 L 34.49019622802734 38.25211715698242 C 32.24047088623047 38.25211715698242 30.41019439697266 36.42183685302734 30.41019439697266 34.172119140625 L 30.41019439697266 10.08003997802734 C 30.41019439697266 7.830299377441406 32.24047088623047 6 34.49019622802734 6 Z" stroke="none" fill="#fff"/>
        </g>
        <g id="Path_14991" data-name="Path 14991" transform="translate(19.894 -5.835)" fill="#fff" stroke-linecap="square">
          <path d="M 39.1097526550293 25.98493957519531 L 37.08108139038086 25.98493957519531 C 36.63367462158203 25.98493957519531 36.21308135986328 25.8107795715332 35.89680480957031 25.49453926086426 C 35.58050155639648 25.17826843261719 35.40630340576172 24.75764846801758 35.40630340576172 24.31015014648438 L 35.40630340576172 12.56721973419189 C 35.40560150146484 12.12763977050781 35.58438491821289 11.69522953033447 35.89680480957031 11.38283920288086 C 36.21308135986328 11.06659889221191 36.63367462158203 10.8924388885498 37.08108139038086 10.8924388885498 L 41.41364669799805 10.8924388885498 C 41.44527053833008 10.89190196990967 41.47696685791016 10.89162921905518 41.50855255126953 10.89162921905518 C 42.21618270874023 10.89162921905518 42.90846252441406 11.02389907836914 43.56614303588867 11.28475952148438 C 44.25906372070312 11.55980968475342 44.87993240356445 11.96333980560303 45.41183471679688 12.48425960540771 C 45.94379425048828 13.00500965118408 46.3603515625 13.61706924438477 46.64972305297852 14.30325889587402 C 46.93924331665039 14.98977947235107 47.08672332763672 15.71549892425537 47.08806228637695 16.46024894714355 L 47.08806228637695 16.46401023864746 L 47.08805465698242 16.46776008605957 C 47.08491134643555 17.21146965026855 46.93626403808594 17.93581962585449 46.64622497558594 18.62067985534668 C 46.35625457763672 19.30558967590332 45.93949508666992 19.91648864746094 45.40757369995117 20.43630027770996 C 44.87568283081055 20.95607948303223 44.25545501708984 21.35867881774902 43.56411361694336 21.63291931152344 C 42.90613174438477 21.893798828125 42.21414184570312 22.02603912353516 41.50717163085938 22.02603912353516 C 41.47611999511719 22.02603912353516 41.44508361816406 22.02578353881836 41.41402053833008 22.02525901794434 L 40.78471374511719 22.02525901794434 L 40.78471374511719 24.31015014648438 C 40.78471374511719 24.75749969482422 40.6104736328125 25.17809867858887 40.29409408569336 25.49448013305664 C 39.97776412963867 25.8107795715332 39.55717468261719 25.98493957519531 39.1097526550293 25.98493957519531 Z M 40.78471374511719 16.83300018310547 L 41.42502212524414 16.83300018310547 C 41.46056365966797 16.8328800201416 41.49908447265625 16.82485008239746 41.53539276123047 16.80916023254395 C 41.57070159912109 16.79385948181152 41.60297393798828 16.77128982543945 41.63006210327148 16.74263000488281 C 41.65754318237305 16.71357917785645 41.67814254760742 16.68033027648926 41.6917724609375 16.64328956604004 C 41.70520401000977 16.60669898986816 41.71107482910156 16.56801986694336 41.708984375 16.52887916564941 L 41.70551300048828 16.46347999572754 L 41.70888137817383 16.39807891845703 C 41.71090316772461 16.3590202331543 41.70508193969727 16.32073020935059 41.69160461425781 16.28425979614258 C 41.67759323120117 16.24622917175293 41.65707397460938 16.21316909790039 41.63018417358398 16.18478012084961 C 41.60306167602539 16.15615844726562 41.57110214233398 16.13377952575684 41.53519439697266 16.11827850341797 C 41.49818420410156 16.10225868225098 41.46013259887695 16.0943489074707 41.42082214355469 16.09420967102051 L 40.78471374511719 16.09421348571777 L 40.78471374511719 16.83300018310547 Z" stroke="none"/>
          <path d="M 41.50855255126953 12.14163398742676 C 41.48075485229492 12.14163398742676 41.45284271240234 12.14190292358398 41.42502212524414 12.1424388885498 L 37.08108139038086 12.1424388885498 C 36.96834182739258 12.1424388885498 36.86029434204102 12.18711853027344 36.78063201904297 12.26676940917969 C 36.70097351074219 12.3464298248291 36.65612411499023 12.45448875427246 36.65630340576172 12.56721878051758 L 36.65630340576172 24.31015014648438 C 36.65630340576172 24.42288970947266 36.70097351074219 24.53094863891602 36.78063201904297 24.61059951782227 C 36.86029434204102 24.69025802612305 36.96834182739258 24.73493957519531 37.08108139038086 24.73493957519531 L 39.1097526550293 24.73493957519531 C 39.22249221801758 24.73493957519531 39.33054351806641 24.69025802612305 39.41021347045898 24.61059951782227 C 39.48986434936523 24.53094863891602 39.53471374511719 24.42288970947266 39.53471374511719 24.31015014648438 L 39.53471374511719 20.77525901794434 L 41.42502212524414 20.77525901794434 C 41.99914169311523 20.78616714477539 42.56949234008789 20.68260955810547 43.10320281982422 20.47099876403809 C 43.6370849609375 20.25922012329102 44.12334442138672 19.94352912902832 44.5339241027832 19.54229927062988 C 44.94468307495117 19.14089012145996 45.27128219604492 18.66207885742188 45.49519348144531 18.13321876525879 C 45.71909332275391 17.60452842712402 45.83564376831055 17.03653907775879 45.83806228637695 16.46249008178711 C 45.83703231811523 15.88756942749023 45.72135162353516 15.3187084197998 45.49795150756836 14.78897857666016 C 45.27456283569336 14.2592601776123 44.94797134399414 13.77940940856934 44.53721237182617 13.37730979919434 C 44.12646484375 12.97503852844238 43.63968276977539 12.65882873535156 43.10528182983398 12.44669914245605 C 42.59674835205078 12.24499893188477 42.05507659912109 12.14163398742676 41.50855255126953 12.14163398742676 M 41.42502212524414 18.08300018310547 L 39.53471374511719 18.08300018310547 L 39.53471374511719 14.84421920776367 L 41.42502212524414 14.84421920776367 C 41.63334274291992 14.84490966796875 41.83941268920898 14.88785934448242 42.03059387207031 14.97062873840332 C 42.22194290161133 15.0532398223877 42.39442443847656 15.1739387512207 42.53763198852539 15.32510948181152 C 42.68101501464844 15.47645950317383 42.79202270507812 15.65534973144531 42.86406326293945 15.85084915161133 C 42.93627166748047 16.04619026184082 42.96796417236328 16.25433921813965 42.95722198486328 16.46249008178711 C 42.96830368041992 16.67080879211426 42.93679428100586 16.87912940979004 42.86492156982422 17.07481002807617 C 42.79288482666016 17.27065849304199 42.681884765625 17.4497184753418 42.53850173950195 17.60124969482422 C 42.39529418945312 17.75276947021484 42.2226448059082 17.8736400604248 42.03128433227539 17.95658874511719 C 41.83976364135742 18.03936004638672 41.63351440429688 18.08230972290039 41.42502212524414 18.08300018310547 M 41.50855255126953 9.641630172729492 C 42.37467193603516 9.641630172729492 43.22200393676758 9.803529739379883 44.02701187133789 10.1228199005127 C 44.8753547668457 10.45956993103027 45.63532257080078 10.95351982116699 46.28644180297852 11.59119987487793 C 46.93742370605469 12.22845840454102 47.44729232788086 12.97764015197754 47.80149459838867 13.81753921508789 C 48.15589141845703 14.65789985656738 48.33642196655273 15.54628944396973 48.33806228637695 16.45800971984863 L 48.33807373046875 16.46551895141602 L 48.33804321289062 16.47303009033203 C 48.33420181274414 17.38331985473633 48.15226364135742 18.26989936828613 47.79726409912109 19.1081485748291 C 47.4423828125 19.94633865356445 46.93228149414062 20.69405937194824 46.28122329711914 21.33029937744141 C 45.63023376464844 21.96645927429199 44.87114334106445 22.45919799804688 44.0250244140625 22.79483795166016 C 43.38401412963867 23.04899024963379 42.71668243408203 23.20338821411133 42.03471374511719 23.25583648681641 L 42.03471374511719 24.31015014648438 C 42.03471374511719 25.09138870239258 41.73045349121094 25.82588958740234 41.17798233032227 26.37836837768555 C 40.62550354003906 26.93077850341797 39.89103317260742 27.23493957519531 39.1097526550293 27.23493957519531 L 37.08108139038086 27.23493957519531 C 36.29974365234375 27.23493957519531 35.56523132324219 26.93074035644531 35.01286315917969 26.37836837768555 C 34.46054458618164 25.82610893249512 34.15630340576172 25.09156799316406 34.15630340576172 24.31015014648438 L 34.15630340576172 12.56721878051758 C 34.15507507324219 11.79987907409668 34.46728134155273 11.04458999633789 35.01286315917969 10.49899864196777 C 35.56533432006836 9.946599960327148 36.2998046875 9.642438888549805 37.08108139038086 9.642438888549805 L 41.40360641479492 9.642438888549805 C 41.43859100341797 9.641901016235352 41.47362899780273 9.641630172729492 41.50855255126953 9.641630172729492 Z" stroke="none" fill="#fff"/>
        </g>
        <g id="Path_14992" data-name="Path 14992" transform="translate(24.202 -4.421)" fill="#fff" stroke-linecap="square">
          <path d="M 46.83914947509766 24.82940292358398 C 45.33575057983398 24.82940292358398 43.93112945556641 24.19840240478516 42.88402938842773 23.05264282226562 C 41.85803985595703 21.92998313903809 41.29299926757812 20.42939376831055 41.29299926757812 18.82730293273926 C 41.29299926757812 17.22562217712402 41.85879898071289 15.72490310668945 42.88618087768555 14.60160255432129 C 43.93387985229492 13.45607280731201 45.33773803710938 12.82520294189453 46.83914947509766 12.82520294189453 C 47.64334869384766 12.82520294189453 48.37638473510742 12.97659301757812 49.01739120483398 13.27057647705078 C 49.23763275146484 13.14485931396484 49.48703765869141 13.07820320129395 49.74631118774414 13.07820320129395 L 51.99940872192383 13.07820320129395 C 52.19250106811523 13.07820320129395 52.38058853149414 13.1153621673584 52.55867004394531 13.18869495391846 L 52.55867004394531 13.18869304656982 C 52.73976135253906 13.26298332214355 52.90177154541016 13.37083339691162 53.04018020629883 13.50925254821777 C 53.17594909667969 13.64501285552979 53.2825813293457 13.80393314361572 53.35710906982422 13.98160266876221 L 53.35905838012695 13.986252784729 L 53.36098098754883 13.99091339111328 C 53.43413925170898 14.16933250427246 53.47124099731445 14.35751247406006 53.47124099731445 14.55020332336426 L 53.47124099731445 23.09948539733887 C 53.47222137451172 23.28963279724121 53.43691253662109 23.47584342956543 53.36621856689453 23.65311241149902 L 53.36447906494141 23.6574821472168 L 53.36270904541016 23.66184234619141 C 53.28903961181641 23.84261322021484 53.18210983276367 24.00446319580078 53.04489135742188 24.14288330078125 C 52.91127777099609 24.27870559692383 52.75059127807617 24.38758850097656 52.57038879394531 24.46333694458008 C 52.38896942138672 24.53985214233398 52.19688415527344 24.57865333557129 51.99940872192383 24.57865333557129 L 49.74631118774414 24.57865333557129 C 49.48574829101562 24.57865333557129 49.23553848266602 24.51158332824707 49.01541900634766 24.3856143951416 C 48.37534713745117 24.67855834960938 47.64300918579102 24.82940292358398 46.83914947509766 24.82940292358398 Z M 47.37857055664062 17.88134384155273 C 46.78258895874023 17.88134384155273 46.48041152954102 18.19961357116699 46.48041152954102 18.82730293273926 C 46.48041152954102 19.45487213134766 46.78258895874023 19.7730827331543 47.37857055664062 19.7730827331543 C 47.97454833984375 19.7730827331543 48.27672958374023 19.45487213134766 48.27672958374023 18.82730293273926 C 48.27672958374023 18.19961357116699 47.97454833984375 17.88134384155273 47.37857055664062 17.88134384155273 Z" stroke="none"/>
          <path d="M 46.83914947509766 14.07520294189453 C 44.48579025268555 14.07520294189453 42.54299926757812 16.14456367492676 42.54299926757812 18.82730293273926 C 42.54299926757812 21.51003265380859 44.48093032836914 23.57940292358398 46.83914947509766 23.57940292358398 C 48.04682159423828 23.57940292358398 48.92757034301758 23.1663932800293 49.52188110351562 22.48134231567383 L 49.52188110351562 23.10440254211426 C 49.52188110351562 23.16380310058594 49.54542922973633 23.22094345092773 49.58750915527344 23.26302337646484 C 49.62958908081055 23.30510330200195 49.68674087524414 23.32865333557129 49.74631118774414 23.32865333557129 L 51.9994010925293 23.32865333557129 C 52.02867126464844 23.32865333557129 52.05775833129883 23.32294273376465 52.08478927612305 23.3115119934082 C 52.11196899414062 23.30025291442871 52.13655853271484 23.2838020324707 52.15716934204102 23.26285171508789 C 52.17776870727539 23.24207305908203 52.19404983520508 23.21730422973633 52.20513153076172 23.19012260437012 C 52.21604156494141 23.16275405883789 52.22158050537109 23.13366317749023 52.22124099731445 23.10440254211426 L 52.22124099731445 14.55020332336426 C 52.22124099731445 14.52093315124512 52.21551895141602 14.4921932220459 52.20444107055664 14.46517372131348 C 52.19318008422852 14.43833351135254 52.17691040039062 14.41374206542969 52.15629959106445 14.39313316345215 C 52.13570022583008 14.37253379821777 52.11127090454102 14.35625267028809 52.08425903320312 14.34517288208008 C 52.05741882324219 14.33391380310059 52.02849960327148 14.32820320129395 51.9994010925293 14.32820320129395 L 49.74631118774414 14.32820320129395 C 49.68708038330078 14.32820320129395 49.63045883178711 14.35157203674316 49.58837890625 14.39313316345215 C 49.54647064208984 14.4347038269043 49.52257919311523 14.49115371704102 49.52188110351562 14.55020332336426 L 49.52188110351562 15.17309379577637 C 48.92757034301758 14.49045372009277 48.04682159423828 14.07520294189453 46.83914947509766 14.07520294189453 M 47.37857055664062 21.0230827331543 C 46.13018798828125 21.0230827331543 45.23041152954102 20.17577362060547 45.23041152954102 18.82730293273926 C 45.23041152954102 17.47866249084473 46.13018798828125 16.63134384155273 47.37857055664062 16.63134384155273 C 48.62677001953125 16.63134384155273 49.52672958374023 17.47866249084473 49.52672958374023 18.82730293273926 C 49.52672958374023 20.17819213867188 48.62677001953125 21.0230827331543 47.37857055664062 21.0230827331543 M 46.83914947509766 11.57520294189453 C 47.68292999267578 11.57520294189453 48.40677642822266 11.71028327941895 49.02415466308594 11.92454719543457 C 49.25664901733398 11.86100769042969 49.49904632568359 11.82820320129395 49.74631118774414 11.82820320129395 L 51.9994010925293 11.82820320129395 C 52.36134338378906 11.82820320129395 52.71397018432617 11.89885711669922 53.04755020141602 12.03820610046387 C 53.37681579589844 12.17544937133789 53.67163848876953 12.37293243408203 53.92406845092773 12.62536239624023 C 54.17512130737305 12.87641334533691 54.3721809387207 13.17002296447754 54.50978851318359 13.49802207946777 L 54.51752090454102 13.51665306091309 C 54.6526985168457 13.8463134765625 54.72124099731445 14.19405364990234 54.72124099731445 14.55020332336426 L 54.72124099731445 23.0980110168457 C 54.72244644165039 23.44778060913086 54.65727996826172 23.79008102416992 54.52743148803711 24.11582183837891 L 54.52016067504883 24.13385391235352 C 54.38520431518555 24.46490669250488 54.1898193359375 24.76168060302734 53.93933868408203 25.0161018371582 L 53.93933868408203 25.0161018371582 C 53.68272399902344 25.27695465087891 53.38104248046875 25.48037338256836 53.0427131652832 25.62070846557617 C 53.04233932495117 25.62086486816406 53.0419921875 25.62100982666016 53.04161834716797 25.62116241455078 C 52.70992660522461 25.75885963439941 52.35939025878906 25.82865333557129 51.9994010925293 25.82865333557129 L 49.74631118774414 25.82865333557129 C 49.49779510498047 25.82865333557129 49.25441360473633 25.79563140869141 49.02109527587891 25.73164749145508 C 48.40454864501953 25.94501113891602 47.68175506591797 26.07940292358398 46.83914947509766 26.07940292358398 C 44.98043060302734 26.07940292358398 43.24811172485352 25.30395317077637 41.96131134033203 23.89590263366699 C 40.72426986694336 22.54230308532715 40.04299926757812 20.74224281311035 40.04299926757812 18.82730293273926 C 40.04299926757812 16.91259384155273 40.72515106201172 15.11227226257324 41.96379089355469 13.75798225402832 C 43.25117111206055 12.35039329528809 44.98260879516602 11.57520294189453 46.83914947509766 11.57520294189453 Z" stroke="none" fill="#fff"/>
        </g>
        <g id="Path_14993" data-name="Path 14993" transform="translate(29.095 -4.319)" fill="#fff" stroke-linecap="square">
          <path d="M 54.03892517089844 28.07427215576172 L 54.03317260742188 28.07427215576172 L 51.73761367797852 28.07427215576172 L 51.73470306396484 28.07427215576172 L 51.733642578125 28.07427215576172 C 51.4961051940918 28.07427215576172 51.25949478149414 28.01605224609375 51.04938507080078 27.90591239929199 C 50.83525848388672 27.79369163513184 50.65050888061523 27.62879943847656 50.51499557495117 27.42897033691406 C 50.37911987304688 27.22901153564453 50.29401779174805 26.99637222290039 50.26882553100586 26.75592231750488 C 50.24404907226562 26.52009391784668 50.27731323242188 26.2788257598877 50.36504745483398 26.05800437927246 L 50.36504364013672 26.05800247192383 L 51.47998046875 23.24527549743652 L 48.09160232543945 14.99771308898926 C 47.99983596801758 14.77510356903076 47.96389389038086 14.5313606262207 47.98766326904297 14.2921028137207 C 48.01016235351562 14.05624294281006 48.09308242797852 13.82262325286865 48.22699356079102 13.62133312225342 C 48.36071395874023 13.42006301879883 48.54474258422852 13.2528829574585 48.75875473022461 13.13851261138916 C 48.97472381591797 13.02411270141602 49.21337509155273 12.96480274200439 49.45303344726562 12.96480274200439 L 51.75150299072266 12.96480274200439 L 51.75870513916016 12.96480274200439 L 51.76590347290039 12.96488285064697 C 52.09087371826172 12.96863269805908 52.40395355224609 13.06840324401855 52.67130279541016 13.25340270996094 C 52.93585205078125 13.43727684020996 53.13660430908203 13.69005107879639 53.25481796264648 13.98672485351562 L 54.22282409667969 16.34126281738281 L 55.15319442749023 13.99714279174805 L 55.15468215942383 13.9934024810791 L 55.15619277954102 13.98966312408447 C 55.27762222290039 13.68937301635742 55.4837646484375 13.4346923828125 55.75230407714844 13.2531623840332 C 56.02023315429688 13.07177257537842 56.33372497558594 12.97525310516357 56.65815353393555 12.97450256347656 L 58.95949554443359 12.97450256347656 L 58.9624137878418 12.97450256347656 L 58.96533203125 12.97451305389404 C 59.20468521118164 12.9756326675415 59.44264221191406 13.03586292266846 59.65349578857422 13.1486930847168 C 59.86334228515625 13.26102256774902 60.04471206665039 13.42437267303467 60.17815399169922 13.62116241455078 C 60.31029510498047 13.81484317779541 60.39558410644531 14.04395294189453 60.42280578613281 14.28076267242432 C 60.45006561279297 14.51680278778076 60.4188346862793 14.75962257385254 60.33241271972656 14.98227310180664 L 60.33064270019531 14.98681259155273 L 60.32885360717773 14.99134254455566 L 55.54182052612305 27.04499435424805 C 55.42335891723633 27.34588623046875 55.22003936767578 27.60212326049805 54.95348358154297 27.78631210327148 C 54.6854248046875 27.97161293029785 54.3711051940918 28.07121276855469 54.04467391967773 28.07422256469727 L 54.03892517089844 28.07427215576172 Z" stroke="none"/>
          <path d="M 49.45303344726562 14.21480369567871 C 49.41631317138672 14.21480369567871 49.38030242919922 14.22380256652832 49.34792327880859 14.24094200134277 C 49.31553268432617 14.25826263427734 49.28799438476562 14.283203125 49.26774215698242 14.31368255615234 C 49.24747467041016 14.34416198730469 49.23501205444336 14.37931251525879 49.23154449462891 14.41567230224609 C 49.22791290283203 14.45221328735352 49.23362350463867 14.48892211914062 49.24783325195312 14.5226936340332 L 52.82792282104492 23.23690223693848 L 51.52708435058594 26.51862335205078 C 51.51340484619141 26.55257415771484 51.50819396972656 26.58928298950195 51.51201248168945 26.62565231323242 C 51.51582336425781 26.66201400756836 51.52863311767578 26.69682312011719 51.54924392700195 26.72695159912109 C 51.56967544555664 26.75725173950195 51.59738540649414 26.7818431854248 51.62976455688477 26.79881286621094 C 51.66215515136719 26.81579399108887 51.69841003417969 26.8243522644043 51.73470306396484 26.82427215576172 L 54.03317260742188 26.82427215576172 C 54.108154296875 26.82357406616211 54.18124389648438 26.80055236816406 54.24288558959961 26.75794219970703 C 54.30453491210938 26.7153434753418 54.35215377807617 26.65543365478516 54.37934494018555 26.58547210693359 L 59.1671142578125 14.52997207641602 C 59.18027496337891 14.49603271484375 59.18513488769531 14.45948219299316 59.18097305297852 14.4234733581543 C 59.17681503295898 14.38727188110352 59.16400527954102 14.35264205932617 59.14356231689453 14.32268333435059 C 59.12313461303711 14.29255294799805 59.09576416015625 14.26796340942383 59.06374359130859 14.25082206726074 C 59.03169250488281 14.23367309570312 58.99585342407227 14.22467231750488 58.95949554443359 14.22450256347656 L 56.66101455688477 14.22450256347656 C 56.58672332763672 14.22467231750488 56.51399230957031 14.24701309204102 56.45235443115234 14.28874206542969 C 56.39087295532227 14.33030319213867 56.34290313720703 14.38935279846191 56.31503295898438 14.45827293395996 L 54.24323272705078 19.67828369140625 L 52.09524536132812 14.45360374450684 C 52.06840515136719 14.38398361206055 52.02129364013672 14.32389259338379 51.96000289916992 14.28129196166992 C 51.89870452880859 14.23887252807617 51.82613372802734 14.21566200256348 51.75150299072266 14.21480369567871 L 49.45303344726562 14.21480369567871 M 49.45303344726562 11.71480369567871 L 51.78031539916992 11.71497344970703 C 52.35545349121094 11.72159194946289 52.90952301025391 11.89814186096191 53.38261413574219 12.22552299499512 L 53.38684463500977 12.22845268249512 C 53.72163772583008 12.46115875244141 53.99967956542969 12.75851249694824 54.20719909667969 13.10297012329102 C 54.42068481445312 12.75202751159668 54.7073860168457 12.45070457458496 55.05226516723633 12.21757316589355 C 55.52629470825195 11.89665222167969 56.08110427856445 11.72582244873047 56.65529251098633 11.72451210021973 L 56.66101455688477 11.72450256347656 L 58.97118377685547 11.72453308105469 C 59.41353225708008 11.72660255432129 59.8534049987793 11.83795356750488 60.24324417114258 12.04656219482422 C 60.62890625 12.25300598144531 60.96251678466797 12.5527172088623 61.20872497558594 12.91374206542969 L 61.20872497558594 12.91374206542969 C 61.2094612121582 12.9148063659668 61.21017456054688 12.9158763885498 61.21089935302734 12.91694068908691 C 61.21150588989258 12.9178295135498 61.2121467590332 12.91877174377441 61.21274566650391 12.91965293884277 C 61.45840072631836 13.28180503845215 61.61462783813477 13.70295906066895 61.66462326049805 14.13806343078613 C 61.71499252319336 14.57405281066895 61.65744400024414 15.02262306213379 61.49802398681641 15.43377304077148 L 61.49058532714844 15.45272254943848 L 56.70505142211914 27.50259017944336 C 56.49541091918945 28.03530502319336 56.13566207885742 28.48882675170898 55.66408538818359 28.81468200683594 C 55.18985366821289 29.14250183105469 54.63383483886719 29.31877326965332 54.05651473999023 29.32416152954102 L 54.03317260742188 29.32427215576172 L 51.73470306396484 29.32427215576172 C 51.29469299316406 29.32427215576172 50.85734558105469 29.21661376953125 50.4688720703125 29.01293182373047 C 50.07356262207031 28.80575942993164 49.7321891784668 28.50122833251953 49.48145294189453 28.13203048706055 C 49.22985458374023 27.76193237304688 49.072265625 27.3313045501709 49.0256233215332 26.88619232177734 C 48.97972869873047 26.44914245605469 49.04162979125977 26.00203323364258 49.2047004699707 25.59313011169434 L 50.13204956054688 23.2536449432373 L 46.93777084350586 15.47853660583496 C 46.7679328918457 15.06857872009277 46.70060729980469 14.61952209472656 46.74285507202148 14.17816352844238 L 46.74285507202148 14.17816352844238 C 46.78530502319336 13.7332820892334 46.93856430053711 13.30143356323242 47.18604278564453 12.92929267883301 C 47.43343353271484 12.55692291259766 47.77357482910156 12.24782371520996 48.16905212402344 12.03634262084961 L 48.1783332824707 12.03140258789062 C 48.56961441040039 11.82428359985352 49.01040267944336 11.71480369567871 49.45303344726562 11.71480369567871 Z" stroke="none" fill="#fff"/>
        </g>
      </g>
      <rect id="Rectangle_1874" data-name="Rectangle 1874" width="94" height="52" transform="translate(1019 14197.951)" fill="none"/>
      <rect id="Rectangle_1901" data-name="Rectangle 1901" width="51.951" height="19.049" transform="translate(1020.732 14214.451)" fill="#fff"/>
      <g id="line-2" data-name="line" transform="translate(1019 14210.122)">
        <path id="Path_14986-2" data-name="Path 14986" d="M13.989,11.916H11.715a.633.633,0,0,0-.633.633V26.707a.633.633,0,0,0,.633.632h2.275a.632.632,0,0,0,.632-.632V12.549A.632.632,0,0,0,13.989,11.916Z" transform="translate(1.182 -6.001)"/>
        <path id="Path_14987-2" data-name="Path 14987" d="M13.671,23.8H7.54V12.549a.633.633,0,0,0-.632-.633H4.632A.633.633,0,0,0,4,12.549V26.709a.633.633,0,0,0,.632.632h9.039a.633.633,0,0,0,.633-.632V24.432a.632.632,0,0,0-.633-.628Z" transform="translate(-4 -6.001)"/>
        <path id="Path_14988-2" data-name="Path 14988" d="M33.2,15.451a.633.633,0,0,0,.642-.625V12.549a.633.633,0,0,0-.633-.633H24.164a.633.633,0,0,0-.633.633V26.709a.633.633,0,0,0,.633.632H33.2a.632.632,0,0,0,.632-.632V24.432A.632.632,0,0,0,33.2,23.8H27.071V21.4H33.2a.633.633,0,0,0,.642-.633V18.492a.632.632,0,0,0-.633-.632H27.071V15.451Z" transform="translate(10.291 -6.001)"/>
        <path id="Path_14989-2" data-name="Path 14989" d="M27.093,11.916H24.816a.633.633,0,0,0-.63.633v8.194l-5.967-8.516a.783.783,0,0,0-.7-.31.854.854,0,0,0-.107,0H15.14a.633.633,0,0,0-.633.633V26.71a.632.632,0,0,0,.633.632h2.277a.632.632,0,0,0,.632-.632V18.153l6.206,8.876c.021.031.048.06.072.088a.642.642,0,0,0,.439.224h2.32a.632.632,0,0,0,.633-.632V12.549a.633.633,0,0,0-.625-.633Z" transform="translate(3.688 -6.003)"/>
        <path id="Path_14990-2" data-name="Path 14990" d="M74.777,8.5H34.49a1.58,1.58,0,0,0-1.58,1.58V34.172a1.58,1.58,0,0,0,1.58,1.58H74.777a1.58,1.58,0,0,0,1.58-1.58V10.08A1.58,1.58,0,0,0,74.777,8.5Z" transform="translate(17.153 -8.5)" fill="#08bf5b"/>
        <path id="Path_14991-2" data-name="Path 14991" d="M45.838,16.462a4.332,4.332,0,0,1-4.413,4.313h-1.89V24.31a.425.425,0,0,1-.425.425H37.081a.424.424,0,0,1-.425-.425V12.567a.424.424,0,0,1,.425-.425h4.344a4.329,4.329,0,0,1,4.413,4.32Zm-2.881,0a1.54,1.54,0,0,0-1.532-1.618h-1.89v3.239h1.89a1.539,1.539,0,0,0,1.532-1.621Z" transform="translate(19.894 -5.835)" fill="#fff"/>
        <path id="Path_14992-2" data-name="Path 14992" d="M52.221,14.55V23.1a.221.221,0,0,1-.064.158.223.223,0,0,1-.158.066H49.746a.224.224,0,0,1-.224-.224v-.623a3.377,3.377,0,0,1-2.683,1.1,4.514,4.514,0,0,1-4.3-4.752,4.517,4.517,0,0,1,4.3-4.752,3.385,3.385,0,0,1,2.683,1.1V14.55a.224.224,0,0,1,.224-.222H52a.223.223,0,0,1,.157.065.221.221,0,0,1,.065.157Zm-2.695,4.277a2.149,2.149,0,1,0-4.3,0,2.149,2.149,0,1,0,4.3,0Z" transform="translate(24.202 -4.421)" fill="#fff"/>
        <path id="Path_14993-2" data-name="Path 14993" d="M56.315,14.458l-2.072,5.22L52.1,14.454a.372.372,0,0,0-.344-.239h-2.3a.225.225,0,0,0-.105.026.222.222,0,0,0-.1.282l3.58,8.714-1.3,3.282a.224.224,0,0,0-.015.107.223.223,0,0,0,.118.173.224.224,0,0,0,.1.025h2.3a.375.375,0,0,0,.346-.239L59.167,14.53a.224.224,0,0,0-.208-.305h-2.3a.375.375,0,0,0-.346.234Z" transform="translate(29.095 -4.319)" fill="#fff"/>
      </g>
    </g>
  </g>
</svg>
