<svg xmlns="http://www.w3.org/2000/svg" width="20" height="20" viewBox="0 0 20 20">
  <g id="ic-loud" transform="translate(-33 -124)">
    <g id="Group_164" data-name="Group 164" transform="translate(-3365 149)">
      <g id="ringing" transform="translate(3399 -24)">
        <g id="Group_161" data-name="Group 161" transform="translate(13.852 0.579)">
          <path id="Path_159" data-name="Path 159" d="M21.007,8.579a.773.773,0,0,1-.773-.773,8.062,8.062,0,0,0-2.376-5.738A.773.773,0,1,1,18.951.976a9.6,9.6,0,0,1,2.829,6.83A.773.773,0,0,1,21.007,8.579Z" transform="translate(-17.632 -0.75)" fill="#1f89cd"/>
        </g>
        <g id="Group_162" data-name="Group 162" transform="translate(1 0.579)">
          <path id="Path_160" data-name="Path 160" d="M1.773,8.579A.773.773,0,0,1,1,7.806,9.6,9.6,0,0,1,3.829.976.773.773,0,0,1,4.922,2.069,8.061,8.061,0,0,0,2.545,7.806a.773.773,0,0,1-.773.773Z" transform="translate(-1 -0.75)" fill="#1f89cd"/>
        </g>
        <g id="Group_163" data-name="Group 163" transform="translate(1.773 0)">
          <path id="Path_161" data-name="Path 161" d="M16.975,13.069a5.176,5.176,0,0,1-1.838-3.96V6.955A5.413,5.413,0,0,0,10.5,1.607V.773a.773.773,0,0,0-1.545,0v.835A5.413,5.413,0,0,0,4.318,6.955V9.109a5.181,5.181,0,0,1-1.845,3.966,1.352,1.352,0,0,0,.879,2.379H16.1a1.352,1.352,0,0,0,.872-2.385Z" transform="translate(-2 0)" fill="#1f89cd"/>
          <path id="Path_162" data-name="Path 162" d="M11.165,23.318A2.9,2.9,0,0,0,14,21H8.326A2.9,2.9,0,0,0,11.165,23.318Z" transform="translate(-3.438 -4.773)" fill="#1f89cd"/>
        </g>
      </g>
      <rect id="Rectangle_212" data-name="Rectangle 212" width="19" height="19" transform="translate(3399 -25)" fill="none"/>
    </g>
    <rect id="Rectangle_256" data-name="Rectangle 256" width="20" height="20" transform="translate(33 124)" fill="none"/>
  </g>
</svg>
