<svg xmlns="http://www.w3.org/2000/svg" width="19" height="19" viewBox="0 0 19 19">
  <g id="ic-order-list" transform="translate(-3947 -111)">
    <g id="shopping-list" transform="translate(3886 111)">
      <g id="Group_184" data-name="Group 184" transform="translate(67.552)">
        <g id="Group_183" data-name="Group 183">
          <path id="Path_165" data-name="Path 165" d="M166.512,1.184h-1.286a1.776,1.776,0,0,0-3.349,0h-1.285a.592.592,0,0,0-.592.592V4.144a.592.592,0,0,0,.592.592h5.92a.592.592,0,0,0,.592-.592V1.776A.592.592,0,0,0,166.512,1.184Z" transform="translate(-160)" fill="#1f89cd"/>
        </g>
      </g>
      <g id="Group_186" data-name="Group 186" transform="translate(64 2.368)">
        <g id="Group_185" data-name="Group 185">
          <path id="Path_166" data-name="Path 166" d="M77.023,64H75.839v1.776a1.778,1.778,0,0,1-1.776,1.776h-5.92a1.778,1.778,0,0,1-1.776-1.776V64H65.184A1.186,1.186,0,0,0,64,65.184V79.391a1.171,1.171,0,0,0,1.184,1.184H77.023a1.171,1.171,0,0,0,1.184-1.184V65.184A1.171,1.171,0,0,0,77.023,64ZM70.931,74.482,68.563,76.85a.595.595,0,0,1-.838,0l-1.184-1.184a.592.592,0,0,1,.837-.837l.766.765,1.949-1.949a.592.592,0,0,1,.838.837Zm0-4.736-2.368,2.368a.595.595,0,0,1-.838,0l-1.184-1.184a.592.592,0,0,1,.837-.837l.766.765,1.949-1.949a.592.592,0,0,1,.838.837Zm4.317,6.092H72.879a.592.592,0,1,1,0-1.184h2.368a.592.592,0,0,1,0,1.184Zm0-4.736H72.879a.592.592,0,1,1,0-1.184h2.368a.592.592,0,0,1,0,1.184Z" transform="translate(-64 -64)" fill="#1f89cd"/>
        </g>
      </g>
    </g>
    <rect id="Rectangle_228" data-name="Rectangle 228" width="19" height="19" transform="translate(3947 111)" fill="none"/>
  </g>
</svg>
