<svg xmlns="http://www.w3.org/2000/svg" width="125" height="50" viewBox="0 0 125 50">
  <g id="ic-pxpay" transform="translate(-4004 315)">
    <rect id="Rectangle_1962" data-name="Rectangle 1962" width="125" height="50" rx="8" transform="translate(4004 -315)" fill="#ffd100"/>
    <g id="全支付" transform="translate(4009 -302)">
      <path id="Path_15003" data-name="Path 15003" d="M5.271,9.044l6.663-5.713v0h0v0L18.6,9.045H5.271ZM10.943.381,0,9.773l1.927,2.189L5.211,9.1V11.98h5.254v2.9H6.282v2.936h4.184v2.9H3.61v2.935H20.26V20.718H13.4v-2.9h4.183V14.88H13.4v-2.9h5.253V9.1l3.285,2.866,1.925-2.189L12.926.38a1.484,1.484,0,0,0-1.984,0Zm45.62,15.33A1.339,1.339,0,1,1,57.9,14.371a1.339,1.339,0,0,1-1.339,1.339Zm0-5.224a3.885,3.885,0,1,0,3.887,3.885,3.891,3.891,0,0,0-3.887-3.885ZM34.125,18.6c-3.365-1.971-4.878-4.865-5.034-6.615H39.159C39,13.646,37.489,16.624,34.125,18.6Zm3.292.984a12.589,12.589,0,0,0,4.93-9.023,1.39,1.39,0,0,0-1.468-1.512H35.574V6.537H43.2V3.745H35.574V.961h-2.9V3.745H25.054V6.537h7.621V9.044H27.369A1.39,1.39,0,0,0,25.9,10.556a12.519,12.519,0,0,0,4.929,9.023,14.325,14.325,0,0,1-6.425,1.139v2.935a17.63,17.63,0,0,0,9.717-2.515,17.872,17.872,0,0,0,9.717,2.515V20.718A14.8,14.8,0,0,1,37.417,19.579ZM50.922.968a5.309,5.309,0,0,1-5.293,5.339V9.241A8.247,8.247,0,0,0,53.859.968H50.922ZM65.129,1.4H62.193V5.156h-9V8.09h9V19.976a.645.645,0,0,1-.644.643H59.317v3.035h2.232a3.584,3.584,0,0,0,3.58-3.579V8.09H67.05V5.156H65.129V1.4ZM48.008,23.654h2.937V9.355H48.008Zm30.454-16.1a1.83,1.83,0,0,1-1.79-1.868,1.792,1.792,0,1,1,3.58,0,1.83,1.83,0,0,1-1.791,1.868m.707-5.512a3.574,3.574,0,0,0-4.231,3.605v6.362h1.788v-3.2a3.2,3.2,0,0,0,1.736.517,3.639,3.639,0,0,0,3.456-4.414A3.589,3.589,0,0,0,79.17,2.044m23.407,5.445A1.821,1.821,0,0,1,100.8,5.631a1.783,1.783,0,1,1,3.562,0A1.821,1.821,0,0,1,102.576,7.489ZM104.6,2.847a3.176,3.176,0,0,0-2.174-.875A3.517,3.517,0,0,0,99.07,5.631a3.517,3.517,0,0,0,3.355,3.658,3.181,3.181,0,0,0,2.174-.875v.669h1.792V2.165H104.6v.681ZM97.106,16.479c-.627-.209-1.174-.365-1.174-.8,0-.36.3-.543.716-.543a2.891,2.891,0,0,1,1.6.56l.764-1.236a4.472,4.472,0,0,0-2.359-.73c-1.461,0-2.5.786-2.5,2.121,0,1.44,1.186,1.839,2.177,2.185.621.21,1.06.36,1.06.793,0,.405-.313.621-.841.621a3.179,3.179,0,0,1-1.69-.6l-.741,1.369a4.909,4.909,0,0,0,2.494.7c1.581,0,2.579-.825,2.579-2.232,0-1.426-1.167-1.9-2.082-2.212M92.751,5.688a1.792,1.792,0,1,1,3.58,0,1.792,1.792,0,1,1-3.58,0M98,4.912a3.515,3.515,0,0,0-6.98.737v6.362h1.788v-3.2a3.191,3.191,0,0,0,1.737.516A3.64,3.64,0,0,0,98,4.912m14.469-2.747L110.9,6.536l-1.588-4.371h-1.938l2.535,6.482L108.6,12.012h1.942l3.839-9.847h-1.914ZM91.017,18.09a1.268,1.268,0,0,1-2.535,0V13.862H86.7v4.372c0,1.669,1.129,2.69,3.055,2.69s3.055-1.021,3.055-2.69V13.862H91.017V18.09ZM78.462,19.209a1.869,1.869,0,1,1,1.791-1.868,1.83,1.83,0,0,1-1.791,1.868M79.17,13.7A3.573,3.573,0,0,0,74.939,17.3v6.362h1.788v-3.2a3.193,3.193,0,0,0,1.736.518,3.639,3.639,0,0,0,3.456-4.414A3.587,3.587,0,0,0,79.17,13.7m4.081,7.1h1.788V10.739H83.251V20.793ZM90.126,9.1,87.338,5.613l2.794-3.448H87.885L86.288,4.3,84.661,2.165H82.415L85.228,5.62,82.41,9.1h2.268l1.585-2.117,1.6,2.117h2.268Z" fill-rule="evenodd"/>
    </g>
  </g>
</svg>
