<svg xmlns="http://www.w3.org/2000/svg" width="25" height="25" viewBox="0 0 25 25">
  <g id="ic-plus" transform="translate(-1206 -1649)">
    <path id="plus_1_" data-name="plus (1)" d="M11.527,5.061H7.31V.843A.844.844,0,0,0,6.466,0H5.9a.844.844,0,0,0-.843.843V5.061H.843A.844.844,0,0,0,0,5.9v.562a.844.844,0,0,0,.843.843H5.061v4.217a.844.844,0,0,0,.843.843h.562a.844.844,0,0,0,.843-.843V7.31h4.217a.844.844,0,0,0,.843-.843V5.9A.844.844,0,0,0,11.527,5.061Zm0,0" transform="translate(1212 1655)" fill="#fff"/>
    <rect id="Rectangle_156" data-name="Rectangle 156" width="25" height="25" transform="translate(1206 1649)" fill="none"/>
  </g>
</svg>
