<svg xmlns="http://www.w3.org/2000/svg" xmlns:xlink="http://www.w3.org/1999/xlink" width="215.508" height="151.545" viewBox="0 0 215.508 151.545">
  <defs>
    <linearGradient id="linear-gradient" x1="-11.272" y1="1.112" x2="-11.233" y2="1.112" gradientUnits="objectBoundingBox">
      <stop offset="0" stop-color="#322731"/>
      <stop offset="1" stop-color="#413040"/>
    </linearGradient>
    <linearGradient id="linear-gradient-2" x1="-40.791" y1="1.5" x2="-40.655" y2="1.5" xlink:href="#linear-gradient"/>
    <linearGradient id="linear-gradient-3" x1="-27.667" y1="2.06" x2="-27.574" y2="2.06" xlink:href="#linear-gradient"/>
    <clipPath id="clip-path">
      <rect id="Rectangle_1924" data-name="Rectangle 1924" width="9.909" height="5.315" fill="none"/>
    </clipPath>
    <clipPath id="clip-path-2">
      <rect id="Rectangle_1925" data-name="Rectangle 1925" width="40.387" height="19.075" fill="none"/>
    </clipPath>
    <clipPath id="clip-path-3">
      <path id="Path_15053" data-name="Path 15053" d="M216.051,181.654,237.7,194.234a2.144,2.144,0,0,0,2.146,0l8.691-4.521a.808.808,0,0,0,0-1.4l-21.645-12.579a2.144,2.144,0,0,0-2.146,0l-8.691,4.521a.808.808,0,0,0,0,1.4" transform="translate(-215.648 -175.447)" fill="none"/>
    </clipPath>
    <clipPath id="clip-path-4">
      <rect id="Rectangle_1926" data-name="Rectangle 1926" width="29.889" height="38.939" fill="none"/>
    </clipPath>
    <linearGradient id="linear-gradient-4" x1="0.353" y1="0.444" x2="0.935" y2="0.929" gradientUnits="objectBoundingBox">
      <stop offset="0" stop-color="#dff2ff"/>
      <stop offset="1" stop-color="#0097ff" stop-opacity="0.31"/>
    </linearGradient>
    <clipPath id="clip-path-5">
      <path id="Path_15079" data-name="Path 15079" d="M127.893,63.947A63.947,63.947,0,1,1,63.947,0a63.947,63.947,0,0,1,63.947,63.947" transform="translate(80 389)" fill="#e5e5e5"/>
    </clipPath>
  </defs>
  <g id="pay-credit" transform="translate(-80 -389)">
    <g id="Group_6724" data-name="Group 6724" transform="translate(216.608 416.964)">
      <path id="Path_15009" data-name="Path 15009" d="M267.578,180.133l.055-4.641-2.7,1.907-1.045,1.26L237.523,160.67a3.553,3.553,0,0,0-3.555-.063l-27.691,15.529.118-.435-3.366-.059-.07,3.963c-.026.329-.007-.678.006-.348l-.019,1.1.126-.151a1.649,1.649,0,0,0,.511,1.073l29.45,18.652a3.556,3.556,0,0,0,3.555.063l30.344-18.35a1.334,1.334,0,0,0,.644-1.507" transform="translate(-202.947 -80.318)" fill="#bcbcbc"/>
      <path id="Path_15010" data-name="Path 15010" d="M203.7,174.93l29.45,18.652a3.556,3.556,0,0,0,3.555.062l30.344-18.35a1.338,1.338,0,0,0,.04-2.318L237.617,155.67a3.557,3.557,0,0,0-3.556-.063l-30.32,17a1.338,1.338,0,0,0-.04,2.318" transform="translate(-202.981 -78.683)" fill="#dbdbdb"/>
      <path id="Path_15011" data-name="Path 15011" d="M216.051,181.654,237.7,194.234a2.144,2.144,0,0,0,2.146,0l8.691-4.521a.807.807,0,0,0,0-1.4l-21.645-12.579a2.144,2.144,0,0,0-2.146,0l-8.691,4.521a.808.808,0,0,0,0,1.4" transform="translate(-207.098 -85.314)" fill="#5f495e"/>
      <path id="Path_15012" data-name="Path 15012" d="M230.051,187.635l4.144,2.482a2.144,2.144,0,0,0,2.146,0l5.325-2.5a.807.807,0,0,0,0-1.4l-4.144-2.482a2.144,2.144,0,0,0-2.146,0l-5.325,2.5a.807.807,0,0,0,0,1.4" transform="translate(-211.675 -87.929)" fill="#fff"/>
      <path id="Path_15013" data-name="Path 15013" d="M230.018,187.609c.012-.008.021-.019.034-.026l5.326-2.5a2.144,2.144,0,0,1,2.146,0l4.144,2.482c.013.007.022.018.034.026a.805.805,0,0,0-.034-1.373l-4.144-2.482a2.144,2.144,0,0,0-2.146,0l-5.326,2.5a.805.805,0,0,0-.034,1.373" transform="translate(-211.676 -87.929)" fill="#e0e0e0"/>
      <path id="Path_15014" data-name="Path 15014" d="M278.816,109.717l-2.347-1.086-11.146,39.324.456,8.716c-.223.577,4.017.81,3.292,7.962-.113,1.018.572,1.457,1.4.978l11.4-6.58-5.318-33.324,3.108-14.3a1.511,1.511,0,0,0-.841-1.691" transform="translate(-223.336 -63.473)" fill="#bcbcbc"/>
      <path id="Path_15015" data-name="Path 15015" d="M253.6,147.654l-14.162-4.831c-.223.577-4.462,11.53-5.188,18.682a1.036,1.036,0,0,0,.387,1.076l24.662,14.3a1.037,1.037,0,0,1-.387-1.076c.726-7.153-.15-26.906.073-27.483Z" transform="translate(-213.174 -74.65)" fill="#bcbcbc"/>
      <path id="Path_15016" data-name="Path 15016" d="M278.693,61.4l-33.47-19.451c-.983-.571-3.714-.646-3.971.462l-13.485,68.439a1.691,1.691,0,0,0,.8,1.845L260.1,131.938c.983.571,3.366.673,4.43-.87l14.96-67.822a1.69,1.69,0,0,0-.8-1.845" transform="translate(-211.045 -41.544)" fill="#dbdbdb"/>
      <path id="Path_15017" data-name="Path 15017" d="M275.693,61.488l-33.47-19.451a1.691,1.691,0,0,0-2.5,1.079l-14.961,67.822a1.692,1.692,0,0,0,.8,1.845l33.469,19.45a1.691,1.691,0,0,0,2.5-1.078l14.96-67.822a1.69,1.69,0,0,0-.8-1.845" transform="translate(-210.065 -41.63)" fill="#523c50"/>
      <rect id="Rectangle_1919" data-name="Rectangle 1919" width="17.365" height="10.384" transform="translate(59.126 113.197)" fill="url(#linear-gradient)"/>
      <path id="Path_15018" data-name="Path 15018" d="M293.3,211.161a6.989,6.989,0,0,0-1,.7l-1.51.02v3.35l.063,0a4.62,4.62,0,0,0,2.449,2.934,13.405,13.405,0,0,0,12.126,0c1.913-1.1,2.728-2.6,2.456-4.04l.073-2.467-1.76.023a7.246,7.246,0,0,0-.769-.517,13.4,13.4,0,0,0-12.126,0" transform="translate(-231.659 -96.514)" fill="none"/>
      <path id="Path_15019" data-name="Path 15019" d="M293.3,207.161c-3.348,1.933-3.348,5.068,0,7a13.4,13.4,0,0,0,12.126,0c3.348-1.933,3.348-5.067,0-7a13.4,13.4,0,0,0-12.126,0" transform="translate(-231.659 -95.207)" fill="#5f495e"/>
      <path id="Path_15020" data-name="Path 15020" d="M300.587,191.49a3.863,3.863,0,0,0,3.5,0,1.065,1.065,0,0,0,0-2.018,3.863,3.863,0,0,0-3.5,0,1.065,1.065,0,0,0,0,2.018" transform="translate(-234.627 -89.762)" fill="#5f495e"/>
      <rect id="Rectangle_1921" data-name="Rectangle 1921" width="4.948" height="16.03" transform="translate(65.231 100.706)" fill="url(#linear-gradient-2)"/>
      <path id="Path_15021" data-name="Path 15021" d="M299.864,205.605a1.219,1.219,0,0,0,.723,1.022,3.863,3.863,0,0,0,3.5,0,1.233,1.233,0,0,0,.724-1V191.18a1.235,1.235,0,0,1-.724,1,3.863,3.863,0,0,1-3.5,0,1.235,1.235,0,0,1-.723-1Zm0-14.427v0" transform="translate(-234.627 -90.448)" fill="none"/>
      <path id="Path_15022" data-name="Path 15022" d="M299.215,168.184a5.664,5.664,0,0,0,5.123,0c1.414-.817,1.414-2.141,0-2.958a5.66,5.66,0,0,0-5.123,0c-1.415.816-1.415,2.141,0,2.958" transform="translate(-234.068 -81.773)" fill="#5f495e"/>
      <rect id="Rectangle_1923" data-name="Rectangle 1923" width="7.254" height="19.337" transform="translate(64.077 84.913)" fill="url(#linear-gradient-3)"/>
      <path id="Path_15023" data-name="Path 15023" d="M298.154,184.715a1.787,1.787,0,0,0,1.061,1.5,5.662,5.662,0,0,0,5.122,0,1.81,1.81,0,0,0,1.061-1.459V167.731a1.81,1.81,0,0,1-1.061,1.459,5.662,5.662,0,0,1-5.122,0,1.808,1.808,0,0,1-1.061-1.461Zm0-16.986v-.037c0,.012,0,.024,0,.037" transform="translate(-234.068 -82.779)" fill="none"/>
      <path id="Path_15024" data-name="Path 15024" d="M284.127,164.809c.047-.1,9.6-18.479,9.6-18.479a1.463,1.463,0,0,1,.192-.282,1.07,1.07,0,0,1,.26-.219.436.436,0,0,1,.38-.057l1.749.726c.034.016.429.278.429.278-.034-.016-1.783-.742-1.783-.742a.437.437,0,0,0-.38.057,1.074,1.074,0,0,0-.261.219,1.449,1.449,0,0,0-.192.283l-9.548,18.382c-.2.441-.173.779.025.895l-.4-.262c-.2-.115-.225-.454-.072-.8" transform="translate(-229.451 -75.607)" fill="#5f495e"/>
      <path id="Path_15025" data-name="Path 15025" d="M284.762,165.1l9.548-18.382a1.25,1.25,0,0,1,.452-.5.435.435,0,0,1,.38-.057l1.749.726c.2.077.238.407.059.756l-9.683,18.629a1.034,1.034,0,0,1-.373.41.371.371,0,0,1-.313.051l-1.76-.719c-.248-.1-.272-.516-.059-.911" transform="translate(-229.643 -75.734)" fill="#322731"/>
      <path id="Path_15026" data-name="Path 15026" d="M291.011,169.574s6.949,3.664,9.091,4.638l-3.381,6.508-8.838-5.123Z" transform="translate(-230.71 -83.394)" fill="#5f495e"/>
      <path id="Path_15027" data-name="Path 15027" d="M304.393,176.464l.619.28-3.38,6.5-.619-.268Z" transform="translate(-235.002 -85.646)" fill="#322731"/>
      <path id="Path_15028" data-name="Path 15028" d="M285.621,165.461c.046-.1,9.6-18.479,9.6-18.479a1.412,1.412,0,0,1,.192-.282,1.071,1.071,0,0,1,.26-.219.436.436,0,0,1,.38-.057l1.749.726c.034.016,9.836,5.709,9.836,5.709-.035-.017-1.783-.742-1.783-.742a.43.43,0,0,0-.38.057,1.032,1.032,0,0,0-.26.219,1.446,1.446,0,0,0-.193.282l-9.547,18.382c-.2.441-.173.779.024.895l-9.8-5.693c-.2-.115-.224-.454-.071-.8" transform="translate(-229.939 -75.82)" fill="#5f495e"/>
      <path id="Path_15029" data-name="Path 15029" d="M300.231,173.823l9.548-18.383a1.248,1.248,0,0,1,.452-.5.435.435,0,0,1,.38-.057l1.749.726c.2.077.238.407.059.756l-9.683,18.629a1.03,1.03,0,0,1-.374.41.369.369,0,0,1-.312.051l-1.76-.72c-.248-.1-.272-.516-.059-.911" transform="translate(-234.699 -78.584)" fill="#322731"/>
      <path id="Path_15030" data-name="Path 15030" d="M295.344,158.071l2.415-4.648a.274.274,0,0,1,.382-.111l6.945,4.033a.274.274,0,0,1,.106.364l-2.4,4.63a.275.275,0,0,1-.382.112l-6.954-4.015a.275.275,0,0,1-.106-.365" transform="translate(-233.139 -78.066)" fill="#96a1aa"/>
      <g id="Group_6714" data-name="Group 6714" transform="translate(62.174 75.208)" opacity="0.5" style="mix-blend-mode: multiply;isolation: isolate">
        <g id="Group_6713" data-name="Group 6713">
          <g id="Group_6712" data-name="Group 6712" clip-path="url(#clip-path)">
            <path id="Path_15031" data-name="Path 15031" d="M295.344,158.071l2.414-4.648a.274.274,0,0,1,.382-.111l6.945,4.033a.275.275,0,0,1,.106.365l-.108.207-6.677-3.879a.275.275,0,0,0-.382.111l-2.306,4.44-.267-.153a.275.275,0,0,1-.106-.365" transform="translate(-295.313 -153.275)" fill="#96a1aa"/>
          </g>
        </g>
      </g>
      <path id="Path_15032" data-name="Path 15032" d="M297.568,165.761l.24-.461a.585.585,0,0,1,.814-.236l1.156.672a.586.586,0,0,1,.226.777l-.238.458a.585.585,0,0,1-.812.237l-1.158-.668a.586.586,0,0,1-.227-.777m-2.138-.588,1.158.669a.585.585,0,0,0,.812-.238l.238-.458a.587.587,0,0,0-.225-.777l-1.157-.672a.586.586,0,0,0-.814.237l-.24.461a.586.586,0,0,0,.227.777m-2.365-1.366,1.158.669a.585.585,0,0,0,.812-.237l.238-.458a.585.585,0,0,0-.225-.776l-1.157-.672a.585.585,0,0,0-.814.236l-.239.461a.585.585,0,0,0,.227.777m3.739,4.564,1.158.669a.585.585,0,0,0,.812-.237l.238-.458a.585.585,0,0,0-.225-.776l-1.156-.672a.586.586,0,0,0-.814.236l-.239.461a.585.585,0,0,0,.227.777m-2.365-1.365,1.158.668a.586.586,0,0,0,.813-.237l.238-.458a.587.587,0,0,0-.225-.777l-1.157-.672a.586.586,0,0,0-.814.237l-.24.46a.586.586,0,0,0,.227.777m-2.365-1.366,1.158.669a.586.586,0,0,0,.813-.238l.238-.458a.586.586,0,0,0-.225-.777l-1.156-.671a.586.586,0,0,0-.815.236l-.239.461a.585.585,0,0,0,.227.777m3.739,4.564,1.158.669a.585.585,0,0,0,.812-.238l.238-.458a.586.586,0,0,0-.226-.777l-1.156-.671a.586.586,0,0,0-.815.236l-.239.461a.585.585,0,0,0,.227.777m-2.365-1.365,1.158.668a.586.586,0,0,0,.813-.237l.238-.458a.586.586,0,0,0-.226-.777l-1.157-.672a.586.586,0,0,0-.814.236l-.24.461a.586.586,0,0,0,.227.777m-2.365-1.366,1.158.669a.586.586,0,0,0,.812-.238l.238-.458a.586.586,0,0,0-.225-.777L291.91,166a.586.586,0,0,0-.814.237l-.239.46a.585.585,0,0,0,.227.777m3.739,4.564,1.158.669a.586.586,0,0,0,.813-.238l.238-.458a.586.586,0,0,0-.226-.777l-1.156-.672a.586.586,0,0,0-.814.237l-.24.46a.586.586,0,0,0,.227.777m-2.365-1.365,1.158.668a.585.585,0,0,0,.812-.238l.238-.458a.586.586,0,0,0-.225-.776l-1.157-.672a.585.585,0,0,0-.814.236l-.24.461a.586.586,0,0,0,.227.777m-2.365-1.366,1.158.669a.586.586,0,0,0,.813-.238l.238-.458a.586.586,0,0,0-.226-.777l-1.156-.672a.587.587,0,0,0-.814.236l-.239.461a.586.586,0,0,0,.227.777" transform="translate(-231.337 -81.001)" fill="#b4b0a8"/>
      <path id="Path_15033" data-name="Path 15033" d="M298.843,167.032l-1.158-.668a.583.583,0,0,1-.128-.112.574.574,0,0,1,.013-.491l.24-.461a.586.586,0,0,1,.814-.237l1.157.672a.56.56,0,0,1,.127.112.575.575,0,0,1-.013.491l-.238.458a.585.585,0,0,1-.812.237m-5.764-4.463-.24.46a.578.578,0,0,0-.013.492.586.586,0,0,0,.129.112l1.158.668a.585.585,0,0,0,.812-.237l.238-.458a.4.4,0,0,0-.114-.6l-1.157-.672a.586.586,0,0,0-.814.237m5.586,6.06.238-.458a.4.4,0,0,0-.114-.6l-1.157-.672a.586.586,0,0,0-.814.236l-.239.461a.574.574,0,0,0-.013.492.586.586,0,0,0,.128.112l1.158.668a.585.585,0,0,0,.812-.237m-1.981,3.667.238-.458a.577.577,0,0,0,.013-.491.56.56,0,0,0-.127-.111l-1.156-.672a.586.586,0,0,0-.814.236l-.239.461a.572.572,0,0,0-.013.491.583.583,0,0,0,.128.112l1.158.669a.586.586,0,0,0,.813-.238m.991-1.834.238-.458a.577.577,0,0,0,.013-.491.6.6,0,0,0-.127-.111l-1.157-.672a.586.586,0,0,0-.814.236l-.24.461a.575.575,0,0,0-.013.491.568.568,0,0,0,.128.112l1.158.669a.586.586,0,0,0,.813-.238m-5.586-6.06-.24.461a.575.575,0,0,0-.013.491.552.552,0,0,0,.128.112l1.158.669a.585.585,0,0,0,.812-.238l.238-.458a.4.4,0,0,0-.114-.6l-1.157-.672a.585.585,0,0,0-.814.236m2.23,6.529.238-.458a.575.575,0,0,0,.013-.491.565.565,0,0,0-.127-.112l-1.156-.672a.586.586,0,0,0-.814.237l-.24.46a.4.4,0,0,0,.115.6l1.158.668a.586.586,0,0,0,.812-.237m1.125-7-.239.461a.575.575,0,0,0-.013.491.555.555,0,0,0,.129.112l1.158.669a.586.586,0,0,0,.812-.238l.238-.458a.577.577,0,0,0,.013-.491.563.563,0,0,0-.127-.111l-1.156-.672a.586.586,0,0,0-.814.236m-3.491,5.631.238-.458a.575.575,0,0,0,.013-.491.542.542,0,0,0-.127-.111l-1.157-.672a.585.585,0,0,0-.814.236l-.24.461a.575.575,0,0,0-.013.491.568.568,0,0,0,.128.112l1.158.669a.586.586,0,0,0,.813-.238m1.257-1.011a.6.6,0,0,0,.129.112l1.158.668a.586.586,0,0,0,.813-.237l.238-.458a.4.4,0,0,0-.114-.6l-1.156-.672a.586.586,0,0,0-.814.237l-.24.46a.578.578,0,0,0-.013.492m-2.112-2.318-.24.461a.574.574,0,0,0-.013.491.568.568,0,0,0,.128.112l1.158.669a.586.586,0,0,0,.812-.238l.238-.458a.577.577,0,0,0,.013-.491.6.6,0,0,0-.127-.111L291.911,166a.585.585,0,0,0-.814.236m5.454.079a.579.579,0,0,0-.127-.112l-1.156-.671a.586.586,0,0,0-.814.236l-.239.461a.4.4,0,0,0,.115.6l1.158.668a.586.586,0,0,0,.813-.237l.238-.458a.577.577,0,0,0,.013-.491" transform="translate(-231.339 -81.001)" fill="#eae9e7"/>
      <path id="Path_15034" data-name="Path 15034" d="M295.421,177.982l.24-.461a.585.585,0,0,1,.814-.236l1.156.672a.585.585,0,0,1,.226.776l-.238.458a.585.585,0,0,1-.812.237l-1.158-.668a.586.586,0,0,1-.227-.777" transform="translate(-233.153 -85.889)" fill="#c92727"/>
      <path id="Path_15035" data-name="Path 15035" d="M291.907,175.953l.24-.461a.586.586,0,0,1,.814-.236l1.156.672a.585.585,0,0,1,.226.777l-.238.458a.587.587,0,0,1-.813.238l-1.158-.669a.587.587,0,0,1-.227-.777" transform="translate(-232.005 -85.226)" fill="#d88416"/>
      <path id="Path_15036" data-name="Path 15036" d="M288.394,173.925l.24-.461a.586.586,0,0,1,.814-.236l1.156.672a.586.586,0,0,1,.226.777l-.238.458a.585.585,0,0,1-.812.237l-1.158-.668a.586.586,0,0,1-.227-.777" transform="translate(-230.856 -84.563)" fill="#5a8e28"/>
      <path id="Path_15037" data-name="Path 15037" d="M296.7,179.254l-1.159-.669a.551.551,0,0,1-.128-.112.575.575,0,0,1,.013-.491l.24-.461a.585.585,0,0,1,.814-.236l1.157.672a.4.4,0,0,1,.114.6l-.238.458a.586.586,0,0,1-.812.238" transform="translate(-233.155 -85.889)" fill="#7ec044"/>
      <path id="Path_15038" data-name="Path 15038" d="M293.183,177.225l-1.159-.669a.567.567,0,0,1-.128-.112.575.575,0,0,1,.013-.491l.24-.461a.585.585,0,0,1,.814-.236l1.157.672a.594.594,0,0,1,.127.111.577.577,0,0,1-.013.491l-.238.458a.586.586,0,0,1-.813.238" transform="translate(-232.007 -85.225)" fill="#ffab31"/>
      <path id="Path_15039" data-name="Path 15039" d="M289.669,175.2l-1.158-.669a.567.567,0,0,1-.128-.112.575.575,0,0,1,.013-.491l.24-.461a.585.585,0,0,1,.814-.236l1.157.672a.4.4,0,0,1,.114.6l-.238.458a.586.586,0,0,1-.812.238" transform="translate(-230.858 -84.562)" fill="#ff3e3e"/>
      <path id="Path_15040" data-name="Path 15040" d="M299.764,147.257a1.444,1.444,0,0,1,.192-.282,1.061,1.061,0,0,1,.26-.219.435.435,0,0,1,.38-.057l1.749.726c.034.016,9.162,5.32,9.162,5.32-.034-.017-1.783-.742-1.783-.742a.435.435,0,0,0-.38.057,1.058,1.058,0,0,0-.26.219,1.44,1.44,0,0,0-.192.282l-1.28,2.463a.257.257,0,0,1-.356.1l-8.629-4.982a.337.337,0,0,1-.131-.448Z" transform="translate(-234.167 -75.909)" fill="#876485"/>
      <path id="Path_15041" data-name="Path 15041" d="M301.178,174.443c.047-.1,9.6-18.479,9.6-18.479a1.441,1.441,0,0,1,.192-.282,1.084,1.084,0,0,1,.26-.219.436.436,0,0,1,.38-.057l1.749.726c.034.016.43.278.43.278-.034-.016-1.783-.742-1.783-.742a.435.435,0,0,0-.38.057,1.073,1.073,0,0,0-.26.219,1.44,1.44,0,0,0-.192.282l-9.548,18.383c-.2.44-.173.779.025.895l-.4-.263c-.2-.114-.224-.454-.072-.8" transform="translate(-235.025 -78.756)" fill="#5f495e"/>
      <path id="Path_15042" data-name="Path 15042" d="M301.813,174.737l9.548-18.383a1.248,1.248,0,0,1,.452-.5.434.434,0,0,1,.38-.057l1.749.726c.2.077.238.407.059.756l-9.683,18.629a1.03,1.03,0,0,1-.374.41.372.372,0,0,1-.312.051l-1.76-.72c-.248-.1-.272-.516-.059-.911" transform="translate(-235.216 -78.883)" fill="#322731"/>
      <path id="Path_15043" data-name="Path 15043" d="M231.081,111.786l14.147-61.2,28.5,16.565-14.147,61.2Z" transform="translate(-212.143 -44.499)" fill="#dbdbdb"/>
      <path id="Path_15044" data-name="Path 15044" d="M251.152,66.159l.485-2.031L277.57,79.184l-.485,2.031Z" transform="translate(-218.704 -48.926)" fill="#eef4f8"/>
      <path id="Path_15045" data-name="Path 15045" d="M241.694,105.129l.485-2.031,25.933,15.056-.485,2.031Z" transform="translate(-215.612 -61.665)" fill="#eef4f8"/>
      <path id="Path_15046" data-name="Path 15046" d="M240.176,111.487l.485-2.031,25.933,15.056-.485,2.031Z" transform="translate(-215.116 -63.743)" fill="#eef4f8"/>
      <path id="Path_15047" data-name="Path 15047" d="M249.083,74.193l.485-2.031L275.5,87.218l-.485,2.031Z" transform="translate(-218.028 -51.552)" fill="#eef4f8"/>
      <path id="Path_15048" data-name="Path 15048" d="M272.843,92.836,251.587,80.523l-.485,2.031,21.256,12.312Z" transform="translate(-218.688 -54.285)" fill="#eef4f8"/>
      <path id="Path_15049" data-name="Path 15049" d="M271.274,99.407,250.017,87.094l-.485,2.031,21.256,12.313Z" transform="translate(-218.175 -56.434)" fill="#eef4f8"/>
      <path id="Path_15050" data-name="Path 15050" d="M244.269,136.038l-6.644-3.9c-1.233-.724-2.552.031-2.948,1.685a4.1,4.1,0,0,0,1.517,4.305l6.644,3.9c1.232.723,2.552-.032,2.947-1.686a4.1,4.1,0,0,0-1.517-4.3" transform="translate(-213.282 -71.068)" fill="#1f89cd"/>
      <path id="Path_15051" data-name="Path 15051" d="M264.7,147.958l-6.644-3.9c-1.232-.724-2.552.031-2.948,1.685a4.1,4.1,0,0,0,1.517,4.3l6.644,3.9c1.232.723,2.552-.032,2.947-1.686a4.1,4.1,0,0,0-1.517-4.3" transform="translate(-219.96 -74.964)" fill="#ff9130"/>
      <g id="Group_6719" data-name="Group 6719" transform="translate(4.075 90.133)" opacity="0.22">
        <g id="Group_6718" data-name="Group 6718">
          <g id="Group_6717" data-name="Group 6717" clip-path="url(#clip-path-2)">
            <g id="Group_6716" data-name="Group 6716" transform="translate(4.475 0)">
              <g id="Group_6715" data-name="Group 6715" clip-path="url(#clip-path-3)">
                <path id="Path_15052" data-name="Path 15052" d="M230.54,180l5.385,2.692-23.559,4.039L209,183.366Zm-12.116,8.751,2.019,2.019L244,186.731l-4.039-1.346Zm5.385,2.692,2.019,2.019,23.559-4.039-4.039-1.346Z" transform="translate(-213.475 -176.935)" fill="#fff"/>
              </g>
            </g>
          </g>
        </g>
      </g>
      <g id="Group_6722" data-name="Group 6722" transform="translate(21.724 0.178)" opacity="0.22">
        <g id="Group_6721" data-name="Group 6721">
          <g id="Group_6720" data-name="Group 6720" clip-path="url(#clip-path-4)">
            <path id="Path_15054" data-name="Path 15054" d="M265.109,43.7l-19.455-1.663a1.69,1.69,0,0,0-2.5,1.078L235.22,80.747Z" transform="translate(-235.22 -41.808)" fill="#fff"/>
          </g>
        </g>
      </g>
    </g>
    <path id="Path_15072" data-name="Path 15072" d="M3974.4,428.193l96.784,82.164-7.415,18.822-131.927,9.137Z" transform="translate(-3788.555 -21.705)" opacity="0.68" fill="url(#linear-gradient-4)"/>
    <path id="Path_15071" data-name="Path 15071" d="M127.893,63.947A63.947,63.947,0,1,1,63.947,0a63.947,63.947,0,0,1,63.947,63.947" transform="translate(80 389)" fill="#e5e5e5"/>
    <g id="Mask_Group_4" data-name="Mask Group 4" clip-path="url(#clip-path-5)">
      <g id="Group_6731" data-name="Group 6731" transform="translate(2)">
        <g id="credit-card" transform="translate(115.979 475.856) rotate(-90)">
          <g id="Group_6682" data-name="Group 6682">
            <path id="Path_14994" data-name="Path 14994" d="M63.191,0H5.355A5.361,5.361,0,0,0,0,5.355V43.912a5.361,5.361,0,0,0,5.355,5.355H63.191a5.361,5.361,0,0,0,5.355-5.355V5.355A5.361,5.361,0,0,0,63.191,0Z" fill="#5d647f"/>
          </g>
          <g id="Group_6683" data-name="Group 6683" transform="translate(8.568 8.568)">
            <path id="Path_14995" data-name="Path 14995" d="M14.994,12.852H2.142A2.142,2.142,0,0,1,0,10.71V2.142A2.142,2.142,0,0,1,2.142,0H14.994a2.142,2.142,0,0,1,2.142,2.142V10.71A2.142,2.142,0,0,1,14.994,12.852Z" fill="#ffd100"/>
          </g>
          <g id="Group_6688" data-name="Group 6688" transform="translate(8.568 29.989)">
            <g id="Group_6684" data-name="Group 6684">
              <path id="Path_14996" data-name="Path 14996" d="M7.5,5.355H2.142A2.142,2.142,0,0,1,0,3.213V2.142A2.142,2.142,0,0,1,2.142,0H7.5A2.142,2.142,0,0,1,9.639,2.142V3.213A2.142,2.142,0,0,1,7.5,5.355Z" fill="#b8bac0"/>
            </g>
            <g id="Group_6685" data-name="Group 6685" transform="translate(13.923)">
              <path id="Path_14997" data-name="Path 14997" d="M7.5,5.355H2.142A2.142,2.142,0,0,1,0,3.213V2.142A2.142,2.142,0,0,1,2.142,0H7.5A2.142,2.142,0,0,1,9.639,2.142V3.213A2.142,2.142,0,0,1,7.5,5.355Z" fill="#b8bac0"/>
            </g>
            <g id="Group_6686" data-name="Group 6686" transform="translate(27.847)">
              <path id="Path_14998" data-name="Path 14998" d="M7.5,5.355H2.142A2.142,2.142,0,0,1,0,3.213V2.142A2.142,2.142,0,0,1,2.142,0H7.5A2.142,2.142,0,0,1,9.639,2.142V3.213A2.142,2.142,0,0,1,7.5,5.355Z" fill="#b8bac0"/>
            </g>
            <g id="Group_6687" data-name="Group 6687" transform="translate(41.77)">
              <path id="Path_14999" data-name="Path 14999" d="M7.5,5.355H2.142A2.142,2.142,0,0,1,0,3.213V2.142A2.142,2.142,0,0,1,2.142,0H7.5A2.142,2.142,0,0,1,9.639,2.142V3.213A2.142,2.142,0,0,1,7.5,5.355Z" fill="#b8bac0"/>
            </g>
          </g>
          <g id="Group_6690" data-name="Group 6690" transform="translate(8.568 39.628)">
            <g id="Group_6689" data-name="Group 6689">
              <path id="Path_15000" data-name="Path 15000" d="M22.492,2.142H1.071A1.071,1.071,0,1,1,1.071,0H22.492a1.071,1.071,0,1,1,0,2.142Z" fill="#8a8895"/>
            </g>
          </g>
          <g id="Group_6692" data-name="Group 6692" transform="translate(34.273 39.628)">
            <g id="Group_6691" data-name="Group 6691">
              <path id="Path_15001" data-name="Path 15001" d="M10.71,2.142H1.071A1.071,1.071,0,1,1,1.071,0H10.71a1.071,1.071,0,1,1,0,2.142Z" fill="#8a8895"/>
            </g>
          </g>
          <g id="Group_6693" data-name="Group 6693" transform="translate(12.852 8.568)">
            <path id="Path_15002" data-name="Path 15002" d="M12.852,7.5H2.142V5.355h10.71V3.213H2.142V0H0V12.852H2.142V9.639h10.71Z" fill="#ff9500"/>
          </g>
          <g id="Group_6694" data-name="Group 6694" transform="translate(46.507 8.398)">
            <ellipse id="Ellipse_2" data-name="Ellipse 2" cx="7.046" cy="6.342" rx="7.046" ry="6.342" transform="translate(0 0)" fill="#ff4f19"/>
          </g>
        </g>
        <g id="save-money" transform="translate(128.71 548.013) rotate(-90)">
          <path id="Path_15076" data-name="Path 15076" d="M19.377,0l2.768,2.768V30.449l-2.768.471-17.439-5.4A2.8,2.8,0,0,1,0,22.864V2.768A2.768,2.768,0,0,1,2.768,0Z" transform="translate(0 19.377)" fill="#384151"/>
          <path id="Path_15077" data-name="Path 15077" d="M74.738,24.608a7,7,0,0,1-4.1,6.366L46.005,42.158a11.969,11.969,0,0,0-5.038,4.263l-.526.83a12.085,12.085,0,0,1-10.02,5.342H11.072a24.821,24.821,0,0,1-8.747-1.578L0,50.3V19.377H1.246A19.327,19.327,0,0,0,13.7,14.837L25.577,4.872A16.589,16.589,0,0,1,37.341,0H52.593V20.069l13.9-2.381a7.017,7.017,0,0,1,8.027,5.2,7.3,7.3,0,0,1,.221,1.716Z" transform="translate(19.377)" fill="#fdd7ad"/>
          <path id="Path_15078" data-name="Path 15078" d="M14.154,5.636,3.236,7.5A2.768,2.768,0,1,1,2.3,2.048L14.154,0Z" transform="translate(57.816 14.433)" fill="#eab07d"/>
        </g>
      </g>
    </g>
  </g>
</svg>
