<svg xmlns="http://www.w3.org/2000/svg" xmlns:xlink="http://www.w3.org/1999/xlink" width="128" height="128" viewBox="0 0 128 128">
  <defs>
    <clipPath id="clip-path">
      <circle id="Ellipse_14" data-name="Ellipse 14" cx="64" cy="64" r="64" transform="translate(0 0.406)" fill="#c0e6ff"/>
    </clipPath>
  </defs>
  <g id="pay-done" transform="translate(-124 -150)">
    <circle id="Ellipse_7" data-name="Ellipse 7" cx="64" cy="64" r="64" transform="translate(124 150)" fill="#c0e6ff"/>
    <g id="Mask_Group_5" data-name="Mask Group 5" transform="translate(124 149.594)" clip-path="url(#clip-path)">
      <g id="Group_6760" data-name="Group 6760" transform="translate(10.19 12.274)">
        <g id="flat" transform="translate(0 0)">
          <ellipse id="Ellipse_8" data-name="Ellipse 8" cx="3.725" cy="4.657" rx="3.725" ry="4.657" transform="matrix(0.319, -0.948, 0.948, 0.319, 1.37, 92.432)" fill="#fdc9a6"/>
          <path id="Path_15108" data-name="Path 15108" d="M112,238.9l5.708-11.851a6.054,6.054,0,0,1,5.256-3.05h31.663a6.054,6.054,0,0,1,3.717,1.275l15.124,11.763-11.176,5.588L156.7,238.9v40.978H123.176l1.863-40.978-3.353,7.451Z" transform="translate(-91.511 -181.159)" fill="#fff"/>
          <path id="Path_15109" data-name="Path 15109" d="M219.265,229.588v33.527a.931.931,0,0,1-1.863,0V230.054L209.33,224h3.1l6.459,4.843A.931.931,0,0,1,219.265,229.588Z" transform="translate(-166.18 -181.159)" fill="#eae9e4"/>
          <path id="Path_15110" data-name="Path 15110" d="M219.265,229.588v33.527a.931.931,0,0,1-1.863,0V230.054L209.33,224h3.1l6.459,4.843A.931.931,0,0,1,219.265,229.588Z" transform="translate(-166.18 -181.159)" fill="#bbbab6"/>
          <path id="Path_15111" data-name="Path 15111" d="M224.083,132.5l1.991-1a4.681,4.681,0,0,0,2.347-2.707,6.393,6.393,0,0,0-8.087-8.087l-.049.016a4.556,4.556,0,0,1-3.478-.247,4.554,4.554,0,0,0-4.074,0A7.1,7.1,0,0,0,210,122.895a9.872,9.872,0,0,0-1.152,8.6,4.5,4.5,0,0,0,1.086,1.757l2.975,2.975,1.863-7.451h9.313Z" transform="translate(-165.42 -101.373)" fill="#7a4922"/>
          <path id="Path_15112" data-name="Path 15112" d="M222.2,170.728h-.931l-1.863,2.4h-7.451L215.682,167v-1.863H213.82a1.863,1.863,0,0,1,0-3.725h1.863l1.863-3.725h9.313v8.382A4.657,4.657,0,0,1,222.2,170.728Z" transform="translate(-168.195 -130.288)" fill="#fdc9a6"/>
          <path id="Path_15113" data-name="Path 15113" d="M227.2,78.4h13.411V89.948H227.2Z" transform="translate(-179.889 -69.459)" fill="#fafafa"/>
          <path id="Path_15114" data-name="Path 15114" d="M24,464H132.033v28.181H24Z" transform="translate(-24 -365.28)" fill="#7a4922"/>
          <path id="Path_15115" data-name="Path 15115" d="M225.856,44.47c-.127,0-.252.009-.377.019a6.705,6.705,0,0,0-12.658,0c-.125-.01-.25-.019-.377-.019a4.47,4.47,0,1,0,2.97,7.8,6.707,6.707,0,0,0,7.47,0,4.468,4.468,0,1,0,2.97-7.8Z" transform="translate(-165.134 -39.999)" fill="#fff"/>
          <g id="Group_6735" data-name="Group 6735" transform="translate(44.46 50.259)">
            <circle id="Ellipse_9" data-name="Ellipse 9" cx="1.933" cy="1.933" r="1.933" transform="translate(0 0)" fill="#bbbab6"/>
            <ellipse id="Ellipse_10" data-name="Ellipse 10" cx="1.933" cy="1.611" rx="1.933" ry="1.611" transform="translate(0 9.665)" fill="#bbbab6"/>
            <circle id="Ellipse_11" data-name="Ellipse 11" cx="1.933" cy="1.933" r="1.933" transform="translate(0 18.686)" fill="#bbbab6"/>
            <path id="Path_15118" data-name="Path 15118" d="M410.29,393.5a.931.931,0,0,1-.67-1.578l7.372-7.641a.931.931,0,1,1,1.34,1.293l-7.372,7.641a.929.929,0,0,1-.67.285Z" transform="translate(-364.096 -354.161)" fill="#bbbab6"/>
          </g>
          <ellipse id="Ellipse_12" data-name="Ellipse 12" cx="3.725" cy="4.657" rx="3.725" ry="4.657" transform="translate(7.871 85.681)" fill="#f0bf9e"/>
          <ellipse id="Ellipse_13" data-name="Ellipse 13" cx="4.657" cy="3.725" rx="4.657" ry="3.725" transform="translate(12.124 89.264) rotate(-22.642)" fill="#fdc9a6"/>
          <path id="Path_15119" data-name="Path 15119" d="M24,440H50.077a5.588,5.588,0,0,1-5.588,5.588h-14.9A5.588,5.588,0,0,1,24,440Z" transform="translate(-24 -346.868)" fill="#c7830b"/>
          <path id="Path_15120" data-name="Path 15120" d="M6.869,19.273,29.858,8.247,31.1,4.252,28.833.277A1.923,1.923,0,0,0,25.919,1.82c-.032.6-1.163,1.836-.7,2.224L26.3,6.3l-.656.639-.118-1.387L24.159,3.523a2.142,2.142,0,0,0-3.691-.414L18.292,6.071l-14.3,3.32a5.154,5.154,0,1,0,2.881,9.881Z" transform="matrix(0.995, -0.105, 0.105, 0.995, 66.77, 46.365)" fill="#fdc9a6"/>
          <path id="Path_15123" data-name="Path 15123" d="M103.31,295.451l-2.235,3.725,9.313,9.313,5.588,1.863v5.588l1.863,1.863-3.725,3.725h-7.451L104.8,317.8l-14.44-13a6.985,6.985,0,0,1-1.392-8.657L93.624,288Z" transform="translate(-73.135 -230.258)" fill="#fdc9a6"/>
          <path id="Path_15124" data-name="Path 15124" d="M371.606,416h26.077a11.176,11.176,0,0,1-11.176,11.176h-3.725A11.176,11.176,0,0,1,371.606,416Z" transform="translate(-290.673 -328.456)" fill="#c7830b"/>
          <path id="Path_15125" data-name="Path 15125" d="M436.224,351.05l-.92.953a2.757,2.757,0,0,0,3.968,3.828l.919-.953a8.823,8.823,0,0,1,2.264-1.694,10.051,10.051,0,0,0,4.054-3.891,3.531,3.531,0,0,0-4.93-4.757,10.049,10.049,0,0,0-3.743,4.191A8.829,8.829,0,0,1,436.224,351.05Z" transform="translate(-338.947 -273.219)" fill="#7a4922"/>
          <g id="Group_6759" data-name="Group 6759" transform="matrix(0.891, -0.454, 0.454, 0.891, 77.581, 29.941)">
            <g id="Group_6759-2" data-name="Group 6759" transform="translate(0 0)">
              <path id="Path_15146" data-name="Path 15146" d="M7.042,0H1.821A1.821,1.821,0,0,0,0,1.821V8.8a1.821,1.821,0,0,0,.488,1.241L2.141,11.82a2.429,2.429,0,0,1,.651,1.654l.4,20a1.673,1.673,0,0,1,.289-.027h2.7a1.673,1.673,0,0,1,.289.027l-.4-20a2.428,2.428,0,0,1,.651-1.654l1.652-1.776A1.821,1.821,0,0,0,8.863,8.8V1.821A1.821,1.821,0,0,0,7.042,0Z" fill="#ea9b58"/>
            </g>
          </g>
          <g id="Group_6741" data-name="Group 6741" transform="translate(32.206 75.02)">
            <g id="Group_6739" data-name="Group 6739" transform="translate(0)">
              <path id="Path_15132" data-name="Path 15132" d="M7.024,351.189l-.2-.412H1.009A1.008,1.008,0,0,0,0,351.786v4.034a1.008,1.008,0,0,0,1.009,1.009H7.024Z" transform="translate(0 -350.777)" fill="#7a6d79"/>
            </g>
            <g id="Group_6740" data-name="Group 6740" transform="translate(42.725)">
              <path id="Path_15133" data-name="Path 15133" d="M224.231,350.777h-5.814l-.2.422v5.629h6.015a1.008,1.008,0,0,0,1.009-1.009v-4.034A1.008,1.008,0,0,0,224.231,350.777Z" transform="translate(-218.216 -350.777)" fill="#685e68"/>
            </g>
          </g>
          <g id="Group_6742" data-name="Group 6742" transform="translate(39.028 75.02)">
            <path id="Path_15134" data-name="Path 15134" d="M34.844,350.777h36.1v23.7h-36.1Z" transform="translate(-34.844 -350.777)" fill="#beaba4"/>
          </g>
        </g>
        <rect id="Rectangle_1956" data-name="Rectangle 1956" width="5.739" height="10.761" rx="2.87" transform="matrix(0.883, -0.469, 0.469, 0.883, 90.299, 44.472)" fill="#fdc9a6"/>
      </g>
    </g>
  </g>
</svg>
